"ffmpeg version N-92989-g32421602df Copyright (c) 2000-2019 the FFmpeg developers\r\n  built with gcc 8.2.1 (GCC) 20181201\r\n  configuration: --enable-gpl --enable-version3 --enable-sdl2 --enable-fontconfig --enable-gnutls --enable-iconv --enable-libass --enable-libbluray --enable-libfreetype --enable-libmp3lame --enable-libopencore-amrnb --enable-libopencore-amrwb --enable-libopenjpeg --enable-libopus --enable-libshine --enable-libsnappy --enable-libsoxr --enable-libtheora --enable-libtwolame --enable-libvpx --enable-libwavpack --enable-libwebp --enable-libx264 --enable-libx265 --enable-libxml2 --enable-libzimg --enable-lzma --enable-zlib --enable-gmp --enable-libvidstab --enable-libvorbis --enable-libvo-amrwbenc --enable-libmysofa --enable-libspeex --enable-libxvid --enable-libaom --enable-libmfx --enable-amf --enable-ffnvcodec --enable-cuvid --enable-d3d11va --enable-nvenc --enable-nvdec --enable-dxva2 --enable-avisynth --enable-libopenmpt\r\n  libavutil      56. 26.100 / 56. 26.100\r\n  libavcodec     58. 44.100 / 58. 44.100\r\n  libavformat    58. 26.100 / 58. 26.100\r\n  libavdevice    58.  6.101 / 58.  6.101\r\n  libavfilter     7. 48.100 /  7. 48.100\r\n  libswscale      5.  4.100 /  5.  4.100\r\n  libswresample   3.  4.100 /  3.  4.100\r\n  libpostproc    55.  4.100 / 55.  4.100\r\nInput #0, mov,mp4,m4a,3gp,3g2,mj2, from 'D:\\do\\alltest\\video2019-01-20\\4329238024739710\\4329238024739710.mp4':\r\n  Metadata:\r\n    major_brand     : isom\r\n    minor_version   : 512\r\n    compatible_brands: isomiso2avc1mp41\r\n    encoder         : Lavf58.20.100\r\n  Duration: 00:03:15.56, start: 0.000000, bitrate: 201 kb/s\r\n    Stream #0:0(und): Video: h264 (High) (avc1 / 0x31637661), yuv420p, 640x368, 147 kb/s, 25 fps, 25 tbr, 12800 tbn, 50 tbc (default)\r\n    Metadata:\r\n      handler_name    : VideoHandler\r\n    Stream #0:1(und): Audio: aac (LC) (mp4a / 0x6134706D), 44100 Hz, stereo, fltp, 48 kb/s (default)\r\n    Metadata:\r\n      handler_name    : SoundHandler\r\nOutput #0, mp4, to 'D:\\do\\alltest\\video2019-01-20\\4329238024739710/4329238024739710_.mp4':\r\n  Metadata:\r\n    major_brand     : isom\r\n    minor_version   : 512\r\n    compatible_brands: isomiso2avc1mp41\r\n    encoder         : Lavf58.26.100\r\n    Stream #0:0(und): Video: h264 (High) (avc1 / 0x31637661), yuv420p, 640x368, q=2-31, 147 kb/s, 25 fps, 25 tbr, 12800 tbn, 12800 tbc (default)\r\n    Metadata:\r\n      handler_name    : VideoHandler\r\n    Stream #0:1(und): Audio: aac (LC) (mp4a / 0x6134706D), 44100 Hz, stereo, fltp, 48 kb/s (default)\r\n    Metadata:\r\n      handler_name    : SoundHandler\r\nStream mapping:\r\n  Stream #0:0 -> #0:0 (copy)\r\n  Stream #0:1 -> #0:1 (copy)\r\nPress [q] to stop, [?] for help\r\nframe= 4729 fps=0.0 q=-1.0 Lsize=    4716kB time=00:03:09.05 bitrate= 204.3kbits/s speed= 995x    \r\nvideo:3453kB audio:1109kB subtitle:0kB other streams:0kB global headers:0kB muxing overhead: 3.379835%\r\n""ffmpeg version N-92989-g32421602df Copyright (c) 2000-2019 the FFmpeg developers\r\n  built with gcc 8.2.1 (GCC) 20181201\r\n  configuration: --enable-gpl --enable-version3 --enable-sdl2 --enable-fontconfig --enable-gnutls --enable-iconv --enable-libass --enable-libbluray --enable-libfreetype --enable-libmp3lame --enable-libopencore-amrnb --enable-libopencore-amrwb --enable-libopenjpeg --enable-libopus --enable-libshine --enable-libsnappy --enable-libsoxr --enable-libtheora --enable-libtwolame --enable-libvpx --enable-libwavpack --enable-libwebp --enable-libx264 --enable-libx265 --enable-libxml2 --enable-libzimg --enable-lzma --enable-zlib --enable-gmp --enable-libvidstab --enable-libvorbis --enable-libvo-amrwbenc --enable-libmysofa --enable-libspeex --enable-libxvid --enable-libaom --enable-libmfx --enable-amf --enable-ffnvcodec --enable-cuvid --enable-d3d11va --enable-nvenc --enable-nvdec --enable-dxva2 --enable-avisynth --enable-libopenmpt\r\n  libavutil      56. 26.100 / 56. 26.100\r\n  libavcodec     58. 44.100 / 58. 44.100\r\n  libavformat    58. 26.100 / 58. 26.100\r\n  libavdevice    58.  6.101 / 58.  6.101\r\n  libavfilter     7. 48.100 /  7. 48.100\r\n  libswscale      5.  4.100 /  5.  4.100\r\n  libswresample   3.  4.100 /  3.  4.100\r\n  libpostproc    55.  4.100 / 55.  4.100\r\nInput #0, mov,mp4,m4a,3gp,3g2,mj2, from 'D:\\do\\alltest\\video2019-01-20\\4329457080923723\\4329457080923723.mp4':\r\n  Metadata:\r\n    major_brand     : isom\r\n    minor_version   : 512\r\n    compatible_brands: isomiso2avc1mp41\r\n    encoder         : Lavf58.20.100\r\n  Duration: 00:05:21.24, start: 0.000000, bitrate: 484 kb/s\r\n    Stream #0:0(und): Video: h264 (High) (avc1 / 0x31637661), yuv420p, 852x480 [SAR 1:1 DAR 71:40], 429 kb/s, 25 fps, 25 tbr, 12800 tbn, 50 tbc (default)\r\n    Metadata:\r\n      handler_name    : VideoHandler\r\n    Stream #0:1(und): Audio: aac (LC) (mp4a / 0x6134706D), 44100 Hz, stereo, fltp, 48 kb/s (default)\r\n    Metadata:\r\n      handler_name    : SoundHandler\r\nOutput #0, mp4, to 'D:\\do\\alltest\\video2019-01-20\\4329457080923723/4329457080923723_.mp4':\r\n  Metadata:\r\n    major_brand     : isom\r\n    minor_version   : 512\r\n    compatible_brands: isomiso2avc1mp41\r\n    encoder         : Lavf58.26.100\r\n    Stream #0:0(und): Video: h264 (High) (avc1 / 0x31637661), yuv420p, 852x480 [SAR 1:1 DAR 71:40], q=2-31, 429 kb/s, 25 fps, 25 tbr, 12800 tbn, 12800 tbc (default)\r\n    Metadata:\r\n      handler_name    : VideoHandler\r\n    Stream #0:1(und): Audio: aac (LC) (mp4a / 0x6134706D), 44100 Hz, stereo, fltp, 48 kb/s (default)\r\n    Metadata:\r\n      handler_name    : SoundHandler\r\nStream mapping:\r\n  Stream #0:0 -> #0:0 (copy)\r\n  Stream #0:1 -> #0:1 (copy)\r\nPress [q] to stop, [?] for help\r\nframe= 7871 fps=0.0 q=-1.0 Lsize=   18859kB time=00:05:14.72 bitrate= 490.9kbits/s speed= 912x    \r\nvideo:16758kB audio:1845kB subtitle:0kB other streams:0kB global headers:0kB muxing overhead: 1.374867%\r\n""ffmpeg version N-92989-g32421602df Copyright (c) 2000-2019 the FFmpeg developers\r\n  built with gcc 8.2.1 (GCC) 20181201\r\n  configuration: --enable-gpl --enable-version3 --enable-sdl2 --enable-fontconfig --enable-gnutls --enable-iconv --enable-libass --enable-libbluray --enable-libfreetype --enable-libmp3lame --enable-libopencore-amrnb --enable-libopencore-amrwb --enable-libopenjpeg --enable-libopus --enable-libshine --enable-libsnappy --enable-libsoxr --enable-libtheora --enable-libtwolame --enable-libvpx --enable-libwavpack --enable-libwebp --enable-libx264 --enable-libx265 --enable-libxml2 --enable-libzimg --enable-lzma --enable-zlib --enable-gmp --enable-libvidstab --enable-libvorbis --enable-libvo-amrwbenc --enable-libmysofa --enable-libspeex --enable-libxvid --enable-libaom --enable-libmfx --enable-amf --enable-ffnvcodec --enable-cuvid --enable-d3d11va --enable-nvenc --enable-nvdec --enable-dxva2 --enable-avisynth --enable-libopenmpt\r\n  libavutil      56. 26.100 / 56. 26.100\r\n  libavcodec     58. 44.100 / 58. 44.100\r\n  libavformat    58. 26.100 / 58. 26.100\r\n  libavdevice    58.  6.101 / 58.  6.101\r\n  libavfilter     7. 48.100 /  7. 48.100\r\n  libswscale      5.  4.100 /  5.  4.100\r\n  libswresample   3.  4.100 /  3.  4.100\r\n  libpostproc    55.  4.100 / 55.  4.100\r\nInput #0, mov,mp4,m4a,3gp,3g2,mj2, from 'D:\\do\\alltest\\video2019-01-20\\4329466769409837\\4329466769409837.mp4':\r\n  Metadata:\r\n    major_brand     : isom\r\n    minor_version   : 512\r\n    compatible_brands: isomiso2avc1mp41\r\n    encoder         : Lavf58.20.100\r\n  Duration: 00:06:07.19, start: 0.000000, bitrate: 299 kb/s\r\n    Stream #0:0(und): Video: h264 (High) (avc1 / 0x31637661), yuv420p, 640x360 [SAR 1:1 DAR 16:9], 243 kb/s, 29.50 fps, 29.50 tbr, 15104 tbn, 59 tbc (default)\r\n    Metadata:\r\n      handler_name    : VideoHandler\r\n    Stream #0:1(und): Audio: aac (LC) (mp4a / 0x6134706D), 44100 Hz, stereo, fltp, 48 kb/s (default)\r\n    Metadata:\r\n      handler_name    : SoundHandler\r\nOutput #0, mp4, to 'D:\\do\\alltest\\video2019-01-20\\4329466769409837/4329466769409837_.mp4':\r\n  Metadata:\r\n    major_brand     : isom\r\n    minor_version   : 512\r\n    compatible_brands: isomiso2avc1mp41\r\n    encoder         : Lavf58.26.100\r\n    Stream #0:0(und): Video: h264 (High) (avc1 / 0x31637661), yuv420p, 640x360 [SAR 1:1 DAR 16:9], q=2-31, 243 kb/s, 29.50 fps, 29.50 tbr, 15104 tbn, 15104 tbc (default)\r\n    Metadata:\r\n      handler_name    : VideoHandler\r\n    Stream #0:1(und): Audio: aac (LC) (mp4a / 0x6134706D), 44100 Hz, stereo, fltp, 48 kb/s (default)\r\n    Metadata:\r\n      handler_name    : SoundHandler\r\nStream mapping:\r\n  Stream #0:0 -> #0:0 (copy)\r\n  Stream #0:1 -> #0:1 (copy)\r\nPress [q] to stop, [?] for help\r\nframe=10643 fps=0.0 q=-1.0 Lsize=   13327kB time=00:06:00.67 bitrate= 302.7kbits/s speed= 915x    \r\nvideo:10840kB audio:2115kB subtitle:0kB other streams:0kB global headers:0kB muxing overhead: 2.872025%\r\n""ffmpeg version N-92989-g32421602df Copyright (c) 2000-2019 the FFmpeg developers\r\n  built with gcc 8.2.1 (GCC) 20181201\r\n  configuration: --enable-gpl --enable-version3 --enable-sdl2 --enable-fontconfig --enable-gnutls --enable-iconv --enable-libass --enable-libbluray --enable-libfreetype --enable-libmp3lame --enable-libopencore-amrnb --enable-libopencore-amrwb --enable-libopenjpeg --enable-libopus --enable-libshine --enable-libsnappy --enable-libsoxr --enable-libtheora --enable-libtwolame --enable-libvpx --enable-libwavpack --enable-libwebp --enable-libx264 --enable-libx265 --enable-libxml2 --enable-libzimg --enable-lzma --enable-zlib --enable-gmp --enable-libvidstab --enable-libvorbis --enable-libvo-amrwbenc --enable-libmysofa --enable-libspeex --enable-libxvid --enable-libaom --enable-libmfx --enable-amf --enable-ffnvcodec --enable-cuvid --enable-d3d11va --enable-nvenc --enable-nvdec --enable-dxva2 --enable-avisynth --enable-libopenmpt\r\n  libavutil      56. 26.100 / 56. 26.100\r\n  libavcodec     58. 44.100 / 58. 44.100\r\n  libavformat    58. 26.100 / 58. 26.100\r\n  libavdevice    58.  6.101 / 58.  6.101\r\n  libavfilter     7. 48.100 /  7. 48.100\r\n  libswscale      5.  4.100 /  5.  4.100\r\n  libswresample   3.  4.100 /  3.  4.100\r\n  libpostproc    55.  4.100 / 55.  4.100\r\nInput #0, mov,mp4,m4a,3gp,3g2,mj2, from 'D:\\do\\alltest\\video2019-01-20\\4329473115505385\\4329473115505385.mp4':\r\n  Metadata:\r\n    major_brand     : isom\r\n    minor_version   : 512\r\n    compatible_brands: isomiso2avc1mp41\r\n    encoder         : Lavf58.20.100\r\n    copyright       : /var/mobile/Media/DCIM/129APPLE/IMG_9955.mp4\r\n  Duration: 00:07:53.17, start: 0.000000, bitrate: 337 kb/s\r\n    Stream #0:0(und): Video: h264 (High) (avc1 / 0x31637661), yuv420p, 640x360 [SAR 1:1 DAR 16:9], 281 kb/s, 30 fps, 30 tbr, 15360 tbn, 60 tbc (default)\r\n    Metadata:\r\n      handler_name    : VideoHandler\r\n    Stream #0:1(und): Audio: aac (LC) (mp4a / 0x6134706D), 44100 Hz, stereo, fltp, 48 kb/s (default)\r\n    Metadata:\r\n      handler_name    : SoundHandler\r\nOutput #0, mp4, to 'D:\\do\\alltest\\video2019-01-20\\4329473115505385/4329473115505385_.mp4':\r\n  Metadata:\r\n    major_brand     : isom\r\n    minor_version   : 512\r\n    compatible_brands: isomiso2avc1mp41\r\n    copyright       : /var/mobile/Media/DCIM/129APPLE/IMG_9955.mp4\r\n    encoder         : Lavf58.26.100\r\n    Stream #0:0(und): Video: h264 (High) (avc1 / 0x31637661), yuv420p, 640x360 [SAR 1:1 DAR 16:9], q=2-31, 281 kb/s, 30 fps, 30 tbr, 15360 tbn, 15360 tbc (default)\r\n    Metadata:\r\n      handler_name    : VideoHandler\r\n    Stream #0:1(und): Audio: aac (LC) (mp4a / 0x6134706D), 44100 Hz, stereo, fltp, 48 kb/s (default)\r\n    Metadata:\r\n      handler_name    : SoundHandler\r\nStream mapping:\r\n  Stream #0:0 -> #0:0 (copy)\r\n  Stream #0:1 -> #0:1 (copy)\r\nPress [q] to stop, [?] for help\r\nframe=13470 fps=0.0 q=-1.0 size=   18176kB time=00:07:28.91 bitrate= 331.7kbits/s speed= 896x    \rframe=14003 fps=0.0 q=-1.0 Lsize=   19388kB time=00:07:46.66 bitrate= 340.3kbits/s speed= 896x    \r\nvideo:16174kB audio:2735kB subtitle:0kB other streams:0kB global headers:0kB muxing overhead: 2.532265%\r\n""ffmpeg version N-92989-g32421602df Copyright (c) 2000-2019 the FFmpeg developers\r\n  built with gcc 8.2.1 (GCC) 20181201\r\n  configuration: --enable-gpl --enable-version3 --enable-sdl2 --enable-fontconfig --enable-gnutls --enable-iconv --enable-libass --enable-libbluray --enable-libfreetype --enable-libmp3lame --enable-libopencore-amrnb --enable-libopencore-amrwb --enable-libopenjpeg --enable-libopus --enable-libshine --enable-libsnappy --enable-libsoxr --enable-libtheora --enable-libtwolame --enable-libvpx --enable-libwavpack --enable-libwebp --enable-libx264 --enable-libx265 --enable-libxml2 --enable-libzimg --enable-lzma --enable-zlib --enable-gmp --enable-libvidstab --enable-libvorbis --enable-libvo-amrwbenc --enable-libmysofa --enable-libspeex --enable-libxvid --enable-libaom --enable-libmfx --enable-amf --enable-ffnvcodec --enable-cuvid --enable-d3d11va --enable-nvenc --enable-nvdec --enable-dxva2 --enable-avisynth --enable-libopenmpt\r\n  libavutil      56. 26.100 / 56. 26.100\r\n  libavcodec     58. 44.100 / 58. 44.100\r\n  libavformat    58. 26.100 / 58. 26.100\r\n  libavdevice    58.  6.101 / 58.  6.101\r\n  libavfilter     7. 48.100 /  7. 48.100\r\n  libswscale      5.  4.100 /  5.  4.100\r\n  libswresample   3.  4.100 /  3.  4.100\r\n  libpostproc    55.  4.100 / 55.  4.100\r\nInput #0, mov,mp4,m4a,3gp,3g2,mj2, from 'D:\\do\\alltest\\video2019-01-20\\4329559224750679\\4329559224750679.mp4':\r\n  Metadata:\r\n    major_brand     : isom\r\n    minor_version   : 512\r\n    compatible_brands: isomiso2avc1mp41\r\n    encoder         : Lavf58.20.100\r\n  Duration: 00:06:53.27, start: 0.000000, bitrate: 235 kb/s\r\n    Stream #0:0(und): Video: h264 (High) (avc1 / 0x31637661), yuv420p, 640x360 [SAR 1:1 DAR 16:9], 178 kb/s, 30 fps, 30 tbr, 15360 tbn, 60 tbc (default)\r\n    Metadata:\r\n      handler_name    : VideoHandler\r\n    Stream #0:1(und): Audio: aac (LC) (mp4a / 0x6134706D), 44100 Hz, stereo, fltp, 48 kb/s (default)\r\n    Metadata:\r\n      handler_name    : SoundHandler\r\nOutput #0, mp4, to 'D:\\do\\alltest\\video2019-01-20\\4329559224750679/4329559224750679_.mp4':\r\n  Metadata:\r\n    major_brand     : isom\r\n    minor_version   : 512\r\n    compatible_brands: isomiso2avc1mp41\r\n    encoder         : Lavf58.26.100\r\n    Stream #0:0(und): Video: h264 (High) (avc1 / 0x31637661), yuv420p, 640x360 [SAR 1:1 DAR 16:9], q=2-31, 178 kb/s, 30 fps, 30 tbr, 15360 tbn, 15360 tbc (default)\r\n    Metadata:\r\n      handler_name    : VideoHandler\r\n    Stream #0:1(und): Audio: aac (LC) (mp4a / 0x6134706D), 44100 Hz, stereo, fltp, 48 kb/s (default)\r\n    Metadata:\r\n      handler_name    : SoundHandler\r\nStream mapping:\r\n  Stream #0:0 -> #0:0 (copy)\r\n  Stream #0:1 -> #0:1 (copy)\r\nPress [q] to stop, [?] for help\r\nframe=12206 fps=0.0 q=-1.0 Lsize=   11765kB time=00:06:46.76 bitrate= 236.9kbits/s speed= 924x    \r\nvideo:8957kB audio:2385kB subtitle:0kB other streams:0kB global headers:0kB muxing overhead: 3.724337%\r\n""ffmpeg version N-92989-g32421602df Copyright (c) 2000-2019 the FFmpeg developers\r\n  built with gcc 8.2.1 (GCC) 20181201\r\n  configuration: --enable-gpl --enable-version3 --enable-sdl2 --enable-fontconfig --enable-gnutls --enable-iconv --enable-libass --enable-libbluray --enable-libfreetype --enable-libmp3lame --enable-libopencore-amrnb --enable-libopencore-amrwb --enable-libopenjpeg --enable-libopus --enable-libshine --enable-libsnappy --enable-libsoxr --enable-libtheora --enable-libtwolame --enable-libvpx --enable-libwavpack --enable-libwebp --enable-libx264 --enable-libx265 --enable-libxml2 --enable-libzimg --enable-lzma --enable-zlib --enable-gmp --enable-libvidstab --enable-libvorbis --enable-libvo-amrwbenc --enable-libmysofa --enable-libspeex --enable-libxvid --enable-libaom --enable-libmfx --enable-amf --enable-ffnvcodec --enable-cuvid --enable-d3d11va --enable-nvenc --enable-nvdec --enable-dxva2 --enable-avisynth --enable-libopenmpt\r\n  libavutil      56. 26.100 / 56. 26.100\r\n  libavcodec     58. 44.100 / 58. 44.100\r\n  libavformat    58. 26.100 / 58. 26.100\r\n  libavdevice    58.  6.101 / 58.  6.101\r\n  libavfilter     7. 48.100 /  7. 48.100\r\n  libswscale      5.  4.100 /  5.  4.100\r\n  libswresample   3.  4.100 /  3.  4.100\r\n  libpostproc    55.  4.100 / 55.  4.100\r\nInput #0, mov,mp4,m4a,3gp,3g2,mj2, from 'D:\\do\\alltest\\video2019-01-20\\4329597103529642\\4329597103529642.mp4':\r\n  Metadata:\r\n    major_brand     : isom\r\n    minor_version   : 512\r\n    compatible_brands: isomiso2avc1mp41\r\n    encoder         : Lavf58.20.100\r\n  Duration: 00:05:03.65, start: 0.000000, bitrate: 315 kb/s\r\n    Stream #0:0(und): Video: h264 (High) (avc1 / 0x31637661), yuv420p, 640x360, 258 kb/s, 29.97 fps, 29.97 tbr, 30k tbn, 59.94 tbc (default)\r\n    Metadata:\r\n      handler_name    : VideoHandler\r\n    Stream #0:1(und): Audio: aac (LC) (mp4a / 0x6134706D), 44100 Hz, stereo, fltp, 48 kb/s (default)\r\n    Metadata:\r\n      handler_name    : SoundHandler\r\nOutput #0, mp4, to 'D:\\do\\alltest\\video2019-01-20\\4329597103529642/4329597103529642_.mp4':\r\n  Metadata:\r\n    major_brand     : isom\r\n    minor_version   : 512\r\n    compatible_brands: isomiso2avc1mp41\r\n    encoder         : Lavf58.26.100\r\n    Stream #0:0(und): Video: h264 (High) (avc1 / 0x31637661), yuv420p, 640x360, q=2-31, 258 kb/s, 29.97 fps, 29.97 tbr, 30k tbn, 30k tbc (default)\r\n    Metadata:\r\n      handler_name    : VideoHandler\r\n    Stream #0:1(und): Audio: aac (LC) (mp4a / 0x6134706D), 44100 Hz, stereo, fltp, 48 kb/s (default)\r\n    Metadata:\r\n      handler_name    : SoundHandler\r\nStream mapping:\r\n  Stream #0:0 -> #0:0 (copy)\r\n  Stream #0:1 -> #0:1 (copy)\r\nPress [q] to stop, [?] for help\r\nframe= 8908 fps=0.0 q=-1.0 Lsize=   11533kB time=00:04:57.14 bitrate= 318.0kbits/s speed= 926x    \r\nvideo:9475kB audio:1743kB subtitle:0kB other streams:0kB global headers:0kB muxing overhead: 2.808448%\r\n""ffmpeg version N-92989-g32421602df Copyright (c) 2000-2019 the FFmpeg developers\r\n  built with gcc 8.2.1 (GCC) 20181201\r\n  configuration: --enable-gpl --enable-version3 --enable-sdl2 --enable-fontconfig --enable-gnutls --enable-iconv --enable-libass --enable-libbluray --enable-libfreetype --enable-libmp3lame --enable-libopencore-amrnb --enable-libopencore-amrwb --enable-libopenjpeg --enable-libopus --enable-libshine --enable-libsnappy --enable-libsoxr --enable-libtheora --enable-libtwolame --enable-libvpx --enable-libwavpack --enable-libwebp --enable-libx264 --enable-libx265 --enable-libxml2 --enable-libzimg --enable-lzma --enable-zlib --enable-gmp --enable-libvidstab --enable-libvorbis --enable-libvo-amrwbenc --enable-libmysofa --enable-libspeex --enable-libxvid --enable-libaom --enable-libmfx --enable-amf --enable-ffnvcodec --enable-cuvid --enable-d3d11va --enable-nvenc --enable-nvdec --enable-dxva2 --enable-avisynth --enable-libopenmpt\r\n  libavutil      56. 26.100 / 56. 26.100\r\n  libavcodec     58. 44.100 / 58. 44.100\r\n  libavformat    58. 26.100 / 58. 26.100\r\n  libavdevice    58.  6.101 / 58.  6.101\r\n  libavfilter     7. 48.100 /  7. 48.100\r\n  libswscale      5.  4.100 /  5.  4.100\r\n  libswresample   3.  4.100 /  3.  4.100\r\n  libpostproc    55.  4.100 / 55.  4.100\r\nInput #0, mov,mp4,m4a,3gp,3g2,mj2, from 'D:\\do\\alltest\\video2019-01-20\\4329698190224667\\4329698190224667.mp4':\r\n  Metadata:\r\n    major_brand     : isom\r\n    minor_version   : 512\r\n    compatible_brands: isomiso2avc1mp41\r\n    encoder         : Lavf58.20.100\r\n  Duration: 00:24:43.62, start: 0.000000, bitrate: 310 kb/s\r\n    Stream #0:0(und): Video: h264 (High) (avc1 / 0x31637661), yuv420p, 640x360 [SAR 1:1 DAR 16:9], 253 kb/s, 29.97 fps, 29.97 tbr, 30k tbn, 59.94 tbc (default)\r\n    Metadata:\r\n      handler_name    : VideoHandler\r\n    Stream #0:1(und): Audio: aac (LC) (mp4a / 0x6134706D), 44100 Hz, stereo, fltp, 48 kb/s (default)\r\n    Metadata:\r\n      handler_name    : SoundHandler\r\nOutput #0, mp4, to 'D:\\do\\alltest\\video2019-01-20\\4329698190224667/4329698190224667_.mp4':\r\n  Metadata:\r\n    major_brand     : isom\r\n    minor_version   : 512\r\n    compatible_brands: isomiso2avc1mp41\r\n    encoder         : Lavf58.26.100\r\n    Stream #0:0(und): Video: h264 (High) (avc1 / 0x31637661), yuv420p, 640x360 [SAR 1:1 DAR 16:9], q=2-31, 253 kb/s, 29.97 fps, 29.97 tbr, 30k tbn, 30k tbc (default)\r\n    Metadata:\r\n      handler_name    : VideoHandler\r\n    Stream #0:1(und): Audio: aac (LC) (mp4a / 0x6134706D), 44100 Hz, stereo, fltp, 48 kb/s (default)\r\n    Metadata:\r\n      handler_name    : SoundHandler\r\nStream mapping:\r\n  Stream #0:0 -> #0:0 (copy)\r\n  Stream #0:1 -> #0:1 (copy)\r\nPress [q] to stop, [?] for help\r\nframe=13695 fps=0.0 q=-1.0 size=   16128kB time=00:07:36.85 bitrate= 289.2kbits/s speed= 910x    \rframe=26895 fps=26841 q=-1.0 size=   36608kB time=00:14:57.31 bitrate= 334.2kbits/s speed= 896x    \rframe=41196 fps=27427 q=-1.0 size=   51712kB time=00:22:54.47 bitrate= 308.2kbits/s speed= 915x    \rframe=44272 fps=27261 q=-1.0 Lsize=   56085kB time=00:24:37.11 bitrate= 311.0kbits/s speed= 910x    \r\nvideo:45885kB audio:8655kB subtitle:0kB other streams:0kB global headers:0kB muxing overhead: 2.832562%\r\n""ffmpeg version N-92989-g32421602df Copyright (c) 2000-2019 the FFmpeg developers\r\n  built with gcc 8.2.1 (GCC) 20181201\r\n  configuration: --enable-gpl --enable-version3 --enable-sdl2 --enable-fontconfig --enable-gnutls --enable-iconv --enable-libass --enable-libbluray --enable-libfreetype --enable-libmp3lame --enable-libopencore-amrnb --enable-libopencore-amrwb --enable-libopenjpeg --enable-libopus --enable-libshine --enable-libsnappy --enable-libsoxr --enable-libtheora --enable-libtwolame --enable-libvpx --enable-libwavpack --enable-libwebp --enable-libx264 --enable-libx265 --enable-libxml2 --enable-libzimg --enable-lzma --enable-zlib --enable-gmp --enable-libvidstab --enable-libvorbis --enable-libvo-amrwbenc --enable-libmysofa --enable-libspeex --enable-libxvid --enable-libaom --enable-libmfx --enable-amf --enable-ffnvcodec --enable-cuvid --enable-d3d11va --enable-nvenc --enable-nvdec --enable-dxva2 --enable-avisynth --enable-libopenmpt\r\n  libavutil      56. 26.100 / 56. 26.100\r\n  libavcodec     58. 44.100 / 58. 44.100\r\n  libavformat    58. 26.100 / 58. 26.100\r\n  libavdevice    58.  6.101 / 58.  6.101\r\n  libavfilter     7. 48.100 /  7. 48.100\r\n  libswscale      5.  4.100 /  5.  4.100\r\n  libswresample   3.  4.100 /  3.  4.100\r\n  libpostproc    55.  4.100 / 55.  4.100\r\nInput #0, mov,mp4,m4a,3gp,3g2,mj2, from 'D:\\do\\alltest\\video2019-01-20\\4329704464357514\\4329704464357514.mp4':\r\n  Metadata:\r\n    major_brand     : isom\r\n    minor_version   : 512\r\n    compatible_brands: isomiso2avc1mp41\r\n    encoder         : Lavf58.20.100\r\n  Duration: 00:07:25.80, start: 0.000000, bitrate: 221 kb/s\r\n    Stream #0:0(und): Video: h264 (High) (avc1 / 0x31637661), yuv420p, 640x360 [SAR 1:1 DAR 16:9], 166 kb/s, 25 fps, 25 tbr, 12800 tbn, 50 tbc (default)\r\n    Metadata:\r\n      handler_name    : VideoHandler\r\n    Stream #0:1(und): Audio: aac (LC) (mp4a / 0x6134706D), 44100 Hz, stereo, fltp, 48 kb/s (default)\r\n    Metadata:\r\n      handler_name    : SoundHandler\r\nOutput #0, mp4, to 'D:\\do\\alltest\\video2019-01-20\\4329704464357514/4329704464357514_.mp4':\r\n  Metadata:\r\n    major_brand     : isom\r\n    minor_version   : 512\r\n    compatible_brands: isomiso2avc1mp41\r\n    encoder         : Lavf58.26.100\r\n    Stream #0:0(und): Video: h264 (High) (avc1 / 0x31637661), yuv420p, 640x360 [SAR 1:1 DAR 16:9], q=2-31, 166 kb/s, 25 fps, 25 tbr, 12800 tbn, 12800 tbc (default)\r\n    Metadata:\r\n      handler_name    : VideoHandler\r\n    Stream #0:1(und): Audio: aac (LC) (mp4a / 0x6134706D), 44100 Hz, stereo, fltp, 48 kb/s (default)\r\n    Metadata:\r\n      handler_name    : SoundHandler\r\nStream mapping:\r\n  Stream #0:0 -> #0:0 (copy)\r\n  Stream #0:1 -> #0:1 (copy)\r\nPress [q] to stop, [?] for help\r\nframe=10985 fps=0.0 q=-1.0 Lsize=   11945kB time=00:07:19.29 bitrate= 222.7kbits/s speed= 996x    \r\nvideo:9018kB audio:2575kB subtitle:0kB other streams:0kB global headers:0kB muxing overhead: 3.029081%\r\n""ffmpeg version N-92989-g32421602df Copyright (c) 2000-2019 the FFmpeg developers\r\n  built with gcc 8.2.1 (GCC) 20181201\r\n  configuration: --enable-gpl --enable-version3 --enable-sdl2 --enable-fontconfig --enable-gnutls --enable-iconv --enable-libass --enable-libbluray --enable-libfreetype --enable-libmp3lame --enable-libopencore-amrnb --enable-libopencore-amrwb --enable-libopenjpeg --enable-libopus --enable-libshine --enable-libsnappy --enable-libsoxr --enable-libtheora --enable-libtwolame --enable-libvpx --enable-libwavpack --enable-libwebp --enable-libx264 --enable-libx265 --enable-libxml2 --enable-libzimg --enable-lzma --enable-zlib --enable-gmp --enable-libvidstab --enable-libvorbis --enable-libvo-amrwbenc --enable-libmysofa --enable-libspeex --enable-libxvid --enable-libaom --enable-libmfx --enable-amf --enable-ffnvcodec --enable-cuvid --enable-d3d11va --enable-nvenc --enable-nvdec --enable-dxva2 --enable-avisynth --enable-libopenmpt\r\n  libavutil      56. 26.100 / 56. 26.100\r\n  libavcodec     58. 44.100 / 58. 44.100\r\n  libavformat    58. 26.100 / 58. 26.100\r\n  libavdevice    58.  6.101 / 58.  6.101\r\n  libavfilter     7. 48.100 /  7. 48.100\r\n  libswscale      5.  4.100 /  5.  4.100\r\n  libswresample   3.  4.100 /  3.  4.100\r\n  libpostproc    55.  4.100 / 55.  4.100\r\nInput #0, mov,mp4,m4a,3gp,3g2,mj2, from 'D:\\do\\alltest\\video2019-01-20\\4329708185343800\\4329708185343800.mp4':\r\n  Metadata:\r\n    major_brand     : isom\r\n    minor_version   : 512\r\n    compatible_brands: isomiso2avc1mp41\r\n    encoder         : Lavf58.20.100\r\n  Duration: 00:03:58.77, start: 0.000000, bitrate: 220 kb/s\r\n    Stream #0:0(und): Video: h264 (High) (avc1 / 0x31637661), yuv420p, 640x360 [SAR 1:1 DAR 16:9], 163 kb/s, 30 fps, 30 tbr, 15360 tbn, 60 tbc (default)\r\n    Metadata:\r\n      handler_name    : VideoHandler\r\n    Stream #0:1(und): Audio: aac (LC) (mp4a / 0x6134706D), 44100 Hz, stereo, fltp, 48 kb/s (default)\r\n    Metadata:\r\n      handler_name    : SoundHandler\r\nOutput #0, mp4, to 'D:\\do\\alltest\\video2019-01-20\\4329708185343800/4329708185343800_.mp4':\r\n  Metadata:\r\n    major_brand     : isom\r\n    minor_version   : 512\r\n    compatible_brands: isomiso2avc1mp41\r\n    encoder         : Lavf58.26.100\r\n    Stream #0:0(und): Video: h264 (High) (avc1 / 0x31637661), yuv420p, 640x360 [SAR 1:1 DAR 16:9], q=2-31, 163 kb/s, 30 fps, 30 tbr, 15360 tbn, 15360 tbc (default)\r\n    Metadata:\r\n      handler_name    : VideoHandler\r\n    Stream #0:1(und): Audio: aac (LC) (mp4a / 0x6134706D), 44100 Hz, stereo, fltp, 48 kb/s (default)\r\n    Metadata:\r\n      handler_name    : SoundHandler\r\nStream mapping:\r\n  Stream #0:0 -> #0:0 (copy)\r\n  Stream #0:1 -> #0:1 (copy)\r\nPress [q] to stop, [?] for help\r\nframe= 6971 fps=0.0 q=-1.0 Lsize=    6325kB time=00:03:52.26 bitrate= 223.1kbits/s speed= 968x    \r\nvideo:4720kB audio:1361kB subtitle:0kB other streams:0kB global headers:0kB muxing overhead: 4.000834%\r\n""ffmpeg version N-92989-g32421602df Copyright (c) 2000-2019 the FFmpeg developers\r\n  built with gcc 8.2.1 (GCC) 20181201\r\n  configuration: --enable-gpl --enable-version3 --enable-sdl2 --enable-fontconfig --enable-gnutls --enable-iconv --enable-libass --enable-libbluray --enable-libfreetype --enable-libmp3lame --enable-libopencore-amrnb --enable-libopencore-amrwb --enable-libopenjpeg --enable-libopus --enable-libshine --enable-libsnappy --enable-libsoxr --enable-libtheora --enable-libtwolame --enable-libvpx --enable-libwavpack --enable-libwebp --enable-libx264 --enable-libx265 --enable-libxml2 --enable-libzimg --enable-lzma --enable-zlib --enable-gmp --enable-libvidstab --enable-libvorbis --enable-libvo-amrwbenc --enable-libmysofa --enable-libspeex --enable-libxvid --enable-libaom --enable-libmfx --enable-amf --enable-ffnvcodec --enable-cuvid --enable-d3d11va --enable-nvenc --enable-nvdec --enable-dxva2 --enable-avisynth --enable-libopenmpt\r\n  libavutil      56. 26.100 / 56. 26.100\r\n  libavcodec     58. 44.100 / 58. 44.100\r\n  libavformat    58. 26.100 / 58. 26.100\r\n  libavdevice    58.  6.101 / 58.  6.101\r\n  libavfilter     7. 48.100 /  7. 48.100\r\n  libswscale      5.  4.100 /  5.  4.100\r\n  libswresample   3.  4.100 /  3.  4.100\r\n  libpostproc    55.  4.100 / 55.  4.100\r\nInput #0, mov,mp4,m4a,3gp,3g2,mj2, from 'D:\\do\\alltest\\video2019-01-20\\4329762245894282\\4329762245894282.mp4':\r\n  Metadata:\r\n    major_brand     : isom\r\n    minor_version   : 512\r\n    compatible_brands: isomiso2avc1mp41\r\n    encoder         : Lavf58.20.100\r\n  Duration: 00:08:40.45, start: 0.000000, bitrate: 107 kb/s\r\n    Stream #0:0(und): Video: h264 (High) (avc1 / 0x31637661), yuv420p, 640x360 [SAR 1:1 DAR 16:9], 50 kb/s, 29.97 fps, 29.97 tbr, 30k tbn, 59.94 tbc (default)\r\n    Metadata:\r\n      handler_name    : VideoHandler\r\n    Stream #0:1(und): Audio: aac (LC) (mp4a / 0x6134706D), 44100 Hz, stereo, fltp, 48 kb/s (default)\r\n    Metadata:\r\n      handler_name    : SoundHandler\r\nOutput #0, mp4, to 'D:\\do\\alltest\\video2019-01-20\\4329762245894282/4329762245894282_.mp4':\r\n  Metadata:\r\n    major_brand     : isom\r\n    minor_version   : 512\r\n    compatible_brands: isomiso2avc1mp41\r\n    encoder         : Lavf58.26.100\r\n    Stream #0:0(und): Video: h264 (High) (avc1 / 0x31637661), yuv420p, 640x360 [SAR 1:1 DAR 16:9], q=2-31, 50 kb/s, 29.97 fps, 29.97 tbr, 30k tbn, 30k tbc (default)\r\n    Metadata:\r\n      handler_name    : VideoHandler\r\n    Stream #0:1(und): Audio: aac (LC) (mp4a / 0x6134706D), 44100 Hz, stereo, fltp, 48 kb/s (default)\r\n    Metadata:\r\n      handler_name    : SoundHandler\r\nStream mapping:\r\n  Stream #0:0 -> #0:0 (copy)\r\n  Stream #0:1 -> #0:1 (copy)\r\nPress [q] to stop, [?] for help\r\nframe=15406 fps=0.0 q=-1.0 Lsize=    6728kB time=00:08:33.94 bitrate= 107.2kbits/s speed=1.05e+03x    \r\nvideo:3174kB audio:3012kB subtitle:0kB other streams:0kB global headers:0kB muxing overhead: 8.759033%\r\n""ffmpeg version N-92989-g32421602df Copyright (c) 2000-2019 the FFmpeg developers\r\n  built with gcc 8.2.1 (GCC) 20181201\r\n  configuration: --enable-gpl --enable-version3 --enable-sdl2 --enable-fontconfig --enable-gnutls --enable-iconv --enable-libass --enable-libbluray --enable-libfreetype --enable-libmp3lame --enable-libopencore-amrnb --enable-libopencore-amrwb --enable-libopenjpeg --enable-libopus --enable-libshine --enable-libsnappy --enable-libsoxr --enable-libtheora --enable-libtwolame --enable-libvpx --enable-libwavpack --enable-libwebp --enable-libx264 --enable-libx265 --enable-libxml2 --enable-libzimg --enable-lzma --enable-zlib --enable-gmp --enable-libvidstab --enable-libvorbis --enable-libvo-amrwbenc --enable-libmysofa --enable-libspeex --enable-libxvid --enable-libaom --enable-libmfx --enable-amf --enable-ffnvcodec --enable-cuvid --enable-d3d11va --enable-nvenc --enable-nvdec --enable-dxva2 --enable-avisynth --enable-libopenmpt\r\n  libavutil      56. 26.100 / 56. 26.100\r\n  libavcodec     58. 44.100 / 58. 44.100\r\n  libavformat    58. 26.100 / 58. 26.100\r\n  libavdevice    58.  6.101 / 58.  6.101\r\n  libavfilter     7. 48.100 /  7. 48.100\r\n  libswscale      5.  4.100 /  5.  4.100\r\n  libswresample   3.  4.100 /  3.  4.100\r\n  libpostproc    55.  4.100 / 55.  4.100\r\nInput #0, mov,mp4,m4a,3gp,3g2,mj2, from 'D:\\do\\alltest\\video2019-01-20\\4329766964176442\\4329766964176442.mp4':\r\n  Metadata:\r\n    major_brand     : isom\r\n    minor_version   : 512\r\n    compatible_brands: isomiso2avc1mp41\r\n    encoder         : Lavf58.20.100\r\n  Duration: 00:01:15.82, start: 0.000000, bitrate: 219 kb/s\r\n    Stream #0:0(und): Video: h264 (High) (avc1 / 0x31637661), yuv420p, 624x360, 165 kb/s, 23.75 fps, 23.75 tbr, 10k tbn, 47.51 tbc (default)\r\n    Metadata:\r\n      handler_name    : VideoHandler\r\n    Stream #0:1(und): Audio: aac (LC) (mp4a / 0x6134706D), 44100 Hz, stereo, fltp, 48 kb/s (default)\r\n    Metadata:\r\n      handler_name    : SoundHandler\r\nOutput #0, mp4, to 'D:\\do\\alltest\\video2019-01-20\\4329766964176442/4329766964176442_.mp4':\r\n  Metadata:\r\n    major_brand     : isom\r\n    minor_version   : 512\r\n    compatible_brands: isomiso2avc1mp41\r\n    encoder         : Lavf58.26.100\r\n    Stream #0:0(und): Video: h264 (High) (avc1 / 0x31637661), yuv420p, 624x360, q=2-31, 165 kb/s, 23.75 fps, 23.75 tbr, 10k tbn, 10k tbc (default)\r\n    Metadata:\r\n      handler_name    : VideoHandler\r\n    Stream #0:1(und): Audio: aac (LC) (mp4a / 0x6134706D), 44100 Hz, stereo, fltp, 48 kb/s (default)\r\n    Metadata:\r\n      handler_name    : SoundHandler\r\nStream mapping:\r\n  Stream #0:0 -> #0:0 (copy)\r\n  Stream #0:1 -> #0:1 (copy)\r\nPress [q] to stop, [?] for help\r\nframe= 1649 fps=0.0 q=-1.0 Lsize=    1918kB time=00:01:09.31 bitrate= 226.7kbits/s speed= 963x    \r\nvideo:1459kB audio:407kB subtitle:0kB other streams:0kB global headers:0kB muxing overhead: 2.806833%\r\n""ffmpeg version N-92989-g32421602df Copyright (c) 2000-2019 the FFmpeg developers\r\n  built with gcc 8.2.1 (GCC) 20181201\r\n  configuration: --enable-gpl --enable-version3 --enable-sdl2 --enable-fontconfig --enable-gnutls --enable-iconv --enable-libass --enable-libbluray --enable-libfreetype --enable-libmp3lame --enable-libopencore-amrnb --enable-libopencore-amrwb --enable-libopenjpeg --enable-libopus --enable-libshine --enable-libsnappy --enable-libsoxr --enable-libtheora --enable-libtwolame --enable-libvpx --enable-libwavpack --enable-libwebp --enable-libx264 --enable-libx265 --enable-libxml2 --enable-libzimg --enable-lzma --enable-zlib --enable-gmp --enable-libvidstab --enable-libvorbis --enable-libvo-amrwbenc --enable-libmysofa --enable-libspeex --enable-libxvid --enable-libaom --enable-libmfx --enable-amf --enable-ffnvcodec --enable-cuvid --enable-d3d11va --enable-nvenc --enable-nvdec --enable-dxva2 --enable-avisynth --enable-libopenmpt\r\n  libavutil      56. 26.100 / 56. 26.100\r\n  libavcodec     58. 44.100 / 58. 44.100\r\n  libavformat    58. 26.100 / 58. 26.100\r\n  libavdevice    58.  6.101 / 58.  6.101\r\n  libavfilter     7. 48.100 /  7. 48.100\r\n  libswscale      5.  4.100 /  5.  4.100\r\n  libswresample   3.  4.100 /  3.  4.100\r\n  libpostproc    55.  4.100 / 55.  4.100\r\nInput #0, mov,mp4,m4a,3gp,3g2,mj2, from 'D:\\do\\alltest\\video2019-01-20\\4330110255553491\\4330110255553491.mp4':\r\n  Metadata:\r\n    major_brand     : isom\r\n    minor_version   : 512\r\n    compatible_brands: isomiso2avc1mp41\r\n    encoder         : Lavf58.20.100\r\n  Duration: 00:12:57.52, start: 0.000000, bitrate: 216 kb/s\r\n    Stream #0:0(und): Video: h264 (High) (avc1 / 0x31637661), yuv420p, 852x480 [SAR 1:1 DAR 71:40], 161 kb/s, 25 fps, 25 tbr, 12800 tbn, 50 tbc (default)\r\n    Metadata:\r\n      handler_name    : VideoHandler\r\n    Stream #0:1(und): Audio: aac (LC) (mp4a / 0x6134706D), 44100 Hz, stereo, fltp, 48 kb/s (default)\r\n    Metadata:\r\n      handler_name    : SoundHandler\r\nOutput #0, mp4, to 'D:\\do\\alltest\\video2019-01-20\\4330110255553491/4330110255553491_.mp4':\r\n  Metadata:\r\n    major_brand     : isom\r\n    minor_version   : 512\r\n    compatible_brands: isomiso2avc1mp41\r\n    encoder         : Lavf58.26.100\r\n    Stream #0:0(und): Video: h264 (High) (avc1 / 0x31637661), yuv420p, 852x480 [SAR 1:1 DAR 71:40], q=2-31, 161 kb/s, 25 fps, 25 tbr, 12800 tbn, 12800 tbc (default)\r\n    Metadata:\r\n      handler_name    : VideoHandler\r\n    Stream #0:1(und): Audio: aac (LC) (mp4a / 0x6134706D), 44100 Hz, stereo, fltp, 48 kb/s (default)\r\n    Metadata:\r\n      handler_name    : SoundHandler\r\nStream mapping:\r\n  Stream #0:0 -> #0:0 (copy)\r\n  Stream #0:1 -> #0:1 (copy)\r\nPress [q] to stop, [?] for help\r\nframe=13303 fps=0.0 q=-1.0 size=   13568kB time=00:08:52.00 bitrate= 208.9kbits/s speed=1.05e+03x    \rframe=19278 fps=0.0 q=-1.0 Lsize=   20400kB time=00:12:51.01 bitrate= 216.7kbits/s speed=1.04e+03x    \r\nvideo:15260kB audio:4519kB subtitle:0kB other streams:0kB global headers:0kB muxing overhead: 3.141364%\r\n""ffmpeg version N-92989-g32421602df Copyright (c) 2000-2019 the FFmpeg developers\r\n  built with gcc 8.2.1 (GCC) 20181201\r\n  configuration: --enable-gpl --enable-version3 --enable-sdl2 --enable-fontconfig --enable-gnutls --enable-iconv --enable-libass --enable-libbluray --enable-libfreetype --enable-libmp3lame --enable-libopencore-amrnb --enable-libopencore-amrwb --enable-libopenjpeg --enable-libopus --enable-libshine --enable-libsnappy --enable-libsoxr --enable-libtheora --enable-libtwolame --enable-libvpx --enable-libwavpack --enable-libwebp --enable-libx264 --enable-libx265 --enable-libxml2 --enable-libzimg --enable-lzma --enable-zlib --enable-gmp --enable-libvidstab --enable-libvorbis --enable-libvo-amrwbenc --enable-libmysofa --enable-libspeex --enable-libxvid --enable-libaom --enable-libmfx --enable-amf --enable-ffnvcodec --enable-cuvid --enable-d3d11va --enable-nvenc --enable-nvdec --enable-dxva2 --enable-avisynth --enable-libopenmpt\r\n  libavutil      56. 26.100 / 56. 26.100\r\n  libavcodec     58. 44.100 / 58. 44.100\r\n  libavformat    58. 26.100 / 58. 26.100\r\n  libavdevice    58.  6.101 / 58.  6.101\r\n  libavfilter     7. 48.100 /  7. 48.100\r\n  libswscale      5.  4.100 /  5.  4.100\r\n  libswresample   3.  4.100 /  3.  4.100\r\n  libpostproc    55.  4.100 / 55.  4.100\r\nInput #0, mov,mp4,m4a,3gp,3g2,mj2, from 'D:\\do\\alltest\\video2019-01-20\\4330149686183355\\4330149686183355.mp4':\r\n  Metadata:\r\n    major_brand     : isom\r\n    minor_version   : 512\r\n    compatible_brands: isomiso2avc1mp41\r\n    encoder         : Lavf58.20.100\r\n    comment         : vid:v0204caa0000bfefbhvvrnhqrd28cmfg\r\n  Duration: 00:00:30.76, start: 0.000000, bitrate: 715 kb/s\r\n    Stream #0:0(und): Video: h264 (High) (avc1 / 0x31637661), yuv420p, 854x480, 660 kb/s, 25 fps, 25 tbr, 12800 tbn, 50 tbc (default)\r\n    Metadata:\r\n      handler_name    : VideoHandler\r\n    Stream #0:1(und): Audio: aac (LC) (mp4a / 0x6134706D), 44100 Hz, stereo, fltp, 48 kb/s (default)\r\n    Metadata:\r\n      handler_name    : SoundHandler\r\nOutput #0, mp4, to 'D:\\do\\alltest\\video2019-01-20\\4330149686183355/4330149686183355_.mp4':\r\n  Metadata:\r\n    major_brand     : isom\r\n    minor_version   : 512\r\n    compatible_brands: isomiso2avc1mp41\r\n    comment         : vid:v0204caa0000bfefbhvvrnhqrd28cmfg\r\n    encoder         : Lavf58.26.100\r\n    Stream #0:0(und): Video: h264 (High) (avc1 / 0x31637661), yuv420p, 854x480, q=2-31, 660 kb/s, 25 fps, 25 tbr, 12800 tbn, 12800 tbc (default)\r\n    Metadata:\r\n      handler_name    : VideoHandler\r\n    Stream #0:1(und): Audio: aac (LC) (mp4a / 0x6134706D), 44100 Hz, stereo, fltp, 48 kb/s (default)\r\n    Metadata:\r\n      handler_name    : SoundHandler\r\nStream mapping:\r\n  Stream #0:0 -> #0:0 (copy)\r\n  Stream #0:1 -> #0:1 (copy)\r\nPress [q] to stop, [?] for help\r\nframe=  609 fps=0.0 q=-1.0 Lsize=    2519kB time=00:00:24.24 bitrate= 851.3kbits/s speed= 808x    \r\nvideo:2355kB audio:143kB subtitle:0kB other streams:0kB global headers:0kB muxing overhead: 0.850373%\r\n""ffmpeg version N-92989-g32421602df Copyright (c) 2000-2019 the FFmpeg developers\r\n  built with gcc 8.2.1 (GCC) 20181201\r\n  configuration: --enable-gpl --enable-version3 --enable-sdl2 --enable-fontconfig --enable-gnutls --enable-iconv --enable-libass --enable-libbluray --enable-libfreetype --enable-libmp3lame --enable-libopencore-amrnb --enable-libopencore-amrwb --enable-libopenjpeg --enable-libopus --enable-libshine --enable-libsnappy --enable-libsoxr --enable-libtheora --enable-libtwolame --enable-libvpx --enable-libwavpack --enable-libwebp --enable-libx264 --enable-libx265 --enable-libxml2 --enable-libzimg --enable-lzma --enable-zlib --enable-gmp --enable-libvidstab --enable-libvorbis --enable-libvo-amrwbenc --enable-libmysofa --enable-libspeex --enable-libxvid --enable-libaom --enable-libmfx --enable-amf --enable-ffnvcodec --enable-cuvid --enable-d3d11va --enable-nvenc --enable-nvdec --enable-dxva2 --enable-avisynth --enable-libopenmpt\r\n  libavutil      56. 26.100 / 56. 26.100\r\n  libavcodec     58. 44.100 / 58. 44.100\r\n  libavformat    58. 26.100 / 58. 26.100\r\n  libavdevice    58.  6.101 / 58.  6.101\r\n  libavfilter     7. 48.100 /  7. 48.100\r\n  libswscale      5.  4.100 /  5.  4.100\r\n  libswresample   3.  4.100 /  3.  4.100\r\n  libpostproc    55.  4.100 / 55.  4.100\r\nInput #0, mov,mp4,m4a,3gp,3g2,mj2, from 'D:\\do\\alltest\\video2019-01-20\\4330149803499088\\4330149803499088.mp4':\r\n  Metadata:\r\n    major_brand     : isom\r\n    minor_version   : 512\r\n    compatible_brands: isomiso2avc1mp41\r\n    encoder         : Lavf58.20.100\r\n    comment         : vid:v0204c0c0000bf9ppa7ibkthe0lam1e0\r\n  Duration: 00:00:15.57, start: 0.000000, bitrate: 314 kb/s\r\n    Stream #0:0(und): Video: h264 (High) (avc1 / 0x31637661), yuv420p, 848x480, 257 kb/s, 30 fps, 30 tbr, 15360 tbn, 60 tbc (default)\r\n    Metadata:\r\n      handler_name    : VideoHandler\r\n    Stream #0:1(und): Audio: aac (LC) (mp4a / 0x6134706D), 44100 Hz, stereo, fltp, 48 kb/s (default)\r\n    Metadata:\r\n      handler_name    : SoundHandler\r\nOutput #0, mp4, to 'D:\\do\\alltest\\video2019-01-20\\4330149803499088/4330149803499088_.mp4':\r\n  Metadata:\r\n    major_brand     : isom\r\n    minor_version   : 512\r\n    compatible_brands: isomiso2avc1mp41\r\n    comment         : vid:v0204c0c0000bf9ppa7ibkthe0lam1e0\r\n    encoder         : Lavf58.26.100\r\n    Stream #0:0(und): Video: h264 (High) (avc1 / 0x31637661), yuv420p, 848x480, q=2-31, 257 kb/s, 30 fps, 30 tbr, 15360 tbn, 15360 tbc (default)\r\n    Metadata:\r\n      handler_name    : VideoHandler\r\n    Stream #0:1(und): Audio: aac (LC) (mp4a / 0x6134706D), 44100 Hz, stereo, fltp, 48 kb/s (default)\r\n    Metadata:\r\n      handler_name    : SoundHandler\r\nStream mapping:\r\n  Stream #0:0 -> #0:0 (copy)\r\n  Stream #0:1 -> #0:1 (copy)\r\nPress [q] to stop, [?] for help\r\nframe=  275 fps=0.0 q=-1.0 Lsize=     427kB time=00:00:09.06 bitrate= 385.8kbits/s speed= 907x    \r\nvideo:362kB audio:54kB subtitle:0kB other streams:0kB global headers:0kB muxing overhead: 2.649947%\r\n""ffmpeg version N-92989-g32421602df Copyright (c) 2000-2019 the FFmpeg developers\r\n  built with gcc 8.2.1 (GCC) 20181201\r\n  configuration: --enable-gpl --enable-version3 --enable-sdl2 --enable-fontconfig --enable-gnutls --enable-iconv --enable-libass --enable-libbluray --enable-libfreetype --enable-libmp3lame --enable-libopencore-amrnb --enable-libopencore-amrwb --enable-libopenjpeg --enable-libopus --enable-libshine --enable-libsnappy --enable-libsoxr --enable-libtheora --enable-libtwolame --enable-libvpx --enable-libwavpack --enable-libwebp --enable-libx264 --enable-libx265 --enable-libxml2 --enable-libzimg --enable-lzma --enable-zlib --enable-gmp --enable-libvidstab --enable-libvorbis --enable-libvo-amrwbenc --enable-libmysofa --enable-libspeex --enable-libxvid --enable-libaom --enable-libmfx --enable-amf --enable-ffnvcodec --enable-cuvid --enable-d3d11va --enable-nvenc --enable-nvdec --enable-dxva2 --enable-avisynth --enable-libopenmpt\r\n  libavutil      56. 26.100 / 56. 26.100\r\n  libavcodec     58. 44.100 / 58. 44.100\r\n  libavformat    58. 26.100 / 58. 26.100\r\n  libavdevice    58.  6.101 / 58.  6.101\r\n  libavfilter     7. 48.100 /  7. 48.100\r\n  libswscale      5.  4.100 /  5.  4.100\r\n  libswresample   3.  4.100 /  3.  4.100\r\n  libpostproc    55.  4.100 / 55.  4.100\r\nInput #0, mov,mp4,m4a,3gp,3g2,mj2, from 'D:\\do\\alltest\\video2019-01-20\\4330153435832544\\4330153435832544.mp4':\r\n  Metadata:\r\n    major_brand     : isom\r\n    minor_version   : 512\r\n    compatible_brands: isomiso2avc1mp41\r\n    encoder         : Lavf58.20.100\r\n    comment         : vid:v0304cf20000beovj99sm3ioo22o3b2g\r\n  Duration: 00:00:15.10, start: 0.000000, bitrate: 447 kb/s\r\n    Stream #0:0(und): Video: h264 (High) (avc1 / 0x31637661), yuv420p, 480x848, 389 kb/s, 30 fps, 30 tbr, 15360 tbn, 60 tbc (default)\r\n    Metadata:\r\n      handler_name    : VideoHandler\r\n    Stream #0:1(und): Audio: aac (LC) (mp4a / 0x6134706D), 44100 Hz, stereo, fltp, 48 kb/s (default)\r\n    Metadata:\r\n      handler_name    : SoundHandler\r\nOutput #0, mp4, to 'D:\\do\\alltest\\video2019-01-20\\4330153435832544/4330153435832544_.mp4':\r\n  Metadata:\r\n    major_brand     : isom\r\n    minor_version   : 512\r\n    compatible_brands: isomiso2avc1mp41\r\n    comment         : vid:v0304cf20000beovj99sm3ioo22o3b2g\r\n    encoder         : Lavf58.26.100\r\n    Stream #0:0(und): Video: h264 (High) (avc1 / 0x31637661), yuv420p, 480x848, q=2-31, 389 kb/s, 30 fps, 30 tbr, 15360 tbn, 15360 tbc (default)\r\n    Metadata:\r\n      handler_name    : VideoHandler\r\n    Stream #0:1(und): Audio: aac (LC) (mp4a / 0x6134706D), 44100 Hz, stereo, fltp, 48 kb/s (default)\r\n    Metadata:\r\n      handler_name    : SoundHandler\r\nStream mapping:\r\n  Stream #0:0 -> #0:0 (copy)\r\n  Stream #0:1 -> #0:1 (copy)\r\nPress [q] to stop, [?] for help\r\nframe=  260 fps=0.0 q=-1.0 Lsize=     549kB time=00:00:08.59 bitrate= 523.8kbits/s speed= 430x    \r\nvideo:487kB audio:51kB subtitle:0kB other streams:0kB global headers:0kB muxing overhead: 1.950112%\r\n""ffmpeg version N-92989-g32421602df Copyright (c) 2000-2019 the FFmpeg developers\r\n  built with gcc 8.2.1 (GCC) 20181201\r\n  configuration: --enable-gpl --enable-version3 --enable-sdl2 --enable-fontconfig --enable-gnutls --enable-iconv --enable-libass --enable-libbluray --enable-libfreetype --enable-libmp3lame --enable-libopencore-amrnb --enable-libopencore-amrwb --enable-libopenjpeg --enable-libopus --enable-libshine --enable-libsnappy --enable-libsoxr --enable-libtheora --enable-libtwolame --enable-libvpx --enable-libwavpack --enable-libwebp --enable-libx264 --enable-libx265 --enable-libxml2 --enable-libzimg --enable-lzma --enable-zlib --enable-gmp --enable-libvidstab --enable-libvorbis --enable-libvo-amrwbenc --enable-libmysofa --enable-libspeex --enable-libxvid --enable-libaom --enable-libmfx --enable-amf --enable-ffnvcodec --enable-cuvid --enable-d3d11va --enable-nvenc --enable-nvdec --enable-dxva2 --enable-avisynth --enable-libopenmpt\r\n  libavutil      56. 26.100 / 56. 26.100\r\n  libavcodec     58. 44.100 / 58. 44.100\r\n  libavformat    58. 26.100 / 58. 26.100\r\n  libavdevice    58.  6.101 / 58.  6.101\r\n  libavfilter     7. 48.100 /  7. 48.100\r\n  libswscale      5.  4.100 /  5.  4.100\r\n  libswresample   3.  4.100 /  3.  4.100\r\n  libpostproc    55.  4.100 / 55.  4.100\r\nInput #0, mov,mp4,m4a,3gp,3g2,mj2, from 'D:\\do\\alltest\\video2019-01-20\\4330162868642478\\4330162868642478.mp4':\r\n  Metadata:\r\n    major_brand     : isom\r\n    minor_version   : 512\r\n    compatible_brands: isomiso2avc1mp41\r\n    encoder         : Lavf58.20.100\r\n    comment         : vid:v0204c7c0000bgk22n49hq5ker0rqd10\r\n  Duration: 00:03:26.36, start: 0.000000, bitrate: 208 kb/s\r\n    Stream #0:0(und): Video: h264 (High) (avc1 / 0x31637661), yuv420p, 480x272, 153 kb/s, 25 fps, 25 tbr, 12800 tbn, 50 tbc (default)\r\n    Metadata:\r\n      handler_name    : VideoHandler\r\n    Stream #0:1(und): Audio: aac (LC) (mp4a / 0x6134706D), 44100 Hz, stereo, fltp, 48 kb/s (default)\r\n    Metadata:\r\n      handler_name    : SoundHandler\r\nOutput #0, mp4, to 'D:\\do\\alltest\\video2019-01-20\\4330162868642478/4330162868642478_.mp4':\r\n  Metadata:\r\n    major_brand     : isom\r\n    minor_version   : 512\r\n    compatible_brands: isomiso2avc1mp41\r\n    comment         : vid:v0204c7c0000bgk22n49hq5ker0rqd10\r\n    encoder         : Lavf58.26.100\r\n    Stream #0:0(und): Video: h264 (High) (avc1 / 0x31637661), yuv420p, 480x272, q=2-31, 153 kb/s, 25 fps, 25 tbr, 12800 tbn, 12800 tbc (default)\r\n    Metadata:\r\n      handler_name    : VideoHandler\r\n    Stream #0:1(und): Audio: aac (LC) (mp4a / 0x6134706D), 44100 Hz, stereo, fltp, 48 kb/s (default)\r\n    Metadata:\r\n      handler_name    : SoundHandler\r\nStream mapping:\r\n  Stream #0:0 -> #0:0 (copy)\r\n  Stream #0:1 -> #0:1 (copy)\r\nPress [q] to stop, [?] for help\r\nframe= 4999 fps=0.0 q=-1.0 Lsize=    5169kB time=00:03:19.85 bitrate= 211.9kbits/s speed= 999x    \r\nvideo:3833kB audio:1172kB subtitle:0kB other streams:0kB global headers:0kB muxing overhead: 3.277141%\r\n""ffmpeg version N-92989-g32421602df Copyright (c) 2000-2019 the FFmpeg developers\r\n  built with gcc 8.2.1 (GCC) 20181201\r\n  configuration: --enable-gpl --enable-version3 --enable-sdl2 --enable-fontconfig --enable-gnutls --enable-iconv --enable-libass --enable-libbluray --enable-libfreetype --enable-libmp3lame --enable-libopencore-amrnb --enable-libopencore-amrwb --enable-libopenjpeg --enable-libopus --enable-libshine --enable-libsnappy --enable-libsoxr --enable-libtheora --enable-libtwolame --enable-libvpx --enable-libwavpack --enable-libwebp --enable-libx264 --enable-libx265 --enable-libxml2 --enable-libzimg --enable-lzma --enable-zlib --enable-gmp --enable-libvidstab --enable-libvorbis --enable-libvo-amrwbenc --enable-libmysofa --enable-libspeex --enable-libxvid --enable-libaom --enable-libmfx --enable-amf --enable-ffnvcodec --enable-cuvid --enable-d3d11va --enable-nvenc --enable-nvdec --enable-dxva2 --enable-avisynth --enable-libopenmpt\r\n  libavutil      56. 26.100 / 56. 26.100\r\n  libavcodec     58. 44.100 / 58. 44.100\r\n  libavformat    58. 26.100 / 58. 26.100\r\n  libavdevice    58.  6.101 / 58.  6.101\r\n  libavfilter     7. 48.100 /  7. 48.100\r\n  libswscale      5.  4.100 /  5.  4.100\r\n  libswresample   3.  4.100 /  3.  4.100\r\n  libpostproc    55.  4.100 / 55.  4.100\r\nInput #0, mov,mp4,m4a,3gp,3g2,mj2, from 'D:\\do\\alltest\\video2019-01-20\\4330170984885833\\4330170984885833.mp4':\r\n  Metadata:\r\n    major_brand     : isom\r\n    minor_version   : 512\r\n    compatible_brands: isomiso2avc1mp41\r\n    encoder         : Lavf58.20.100\r\n  Duration: 00:03:22.60, start: 0.000000, bitrate: 276 kb/s\r\n    Stream #0:0(und): Video: h264 (High) (avc1 / 0x31637661), yuv420p, 640x360 [SAR 1:1 DAR 16:9], 219 kb/s, 29.97 fps, 29.97 tbr, 30k tbn, 59.94 tbc (default)\r\n    Metadata:\r\n      handler_name    : VideoHandler\r\n    Stream #0:1(und): Audio: aac (LC) (mp4a / 0x6134706D), 44100 Hz, stereo, fltp, 48 kb/s (default)\r\n    Metadata:\r\n      handler_name    : SoundHandler\r\nOutput #0, mp4, to 'D:\\do\\alltest\\video2019-01-20\\4330170984885833/4330170984885833_.mp4':\r\n  Metadata:\r\n    major_brand     : isom\r\n    minor_version   : 512\r\n    compatible_brands: isomiso2avc1mp41\r\n    encoder         : Lavf58.26.100\r\n    Stream #0:0(und): Video: h264 (High) (avc1 / 0x31637661), yuv420p, 640x360 [SAR 1:1 DAR 16:9], q=2-31, 219 kb/s, 29.97 fps, 29.97 tbr, 30k tbn, 30k tbc (default)\r\n    Metadata:\r\n      handler_name    : VideoHandler\r\n    Stream #0:1(und): Audio: aac (LC) (mp4a / 0x6134706D), 44100 Hz, stereo, fltp, 48 kb/s (default)\r\n    Metadata:\r\n      handler_name    : SoundHandler\r\nStream mapping:\r\n  Stream #0:0 -> #0:0 (copy)\r\n  Stream #0:1 -> #0:1 (copy)\r\nPress [q] to stop, [?] for help\r\nframe= 5880 fps=0.0 q=-1.0 Lsize=    6737kB time=00:03:16.09 bitrate= 281.5kbits/s speed= 934x    \r\nvideo:5381kB audio:1149kB subtitle:0kB other streams:0kB global headers:0kB muxing overhead: 3.165233%\r\n""ffmpeg version N-92989-g32421602df Copyright (c) 2000-2019 the FFmpeg developers\r\n  built with gcc 8.2.1 (GCC) 20181201\r\n  configuration: --enable-gpl --enable-version3 --enable-sdl2 --enable-fontconfig --enable-gnutls --enable-iconv --enable-libass --enable-libbluray --enable-libfreetype --enable-libmp3lame --enable-libopencore-amrnb --enable-libopencore-amrwb --enable-libopenjpeg --enable-libopus --enable-libshine --enable-libsnappy --enable-libsoxr --enable-libtheora --enable-libtwolame --enable-libvpx --enable-libwavpack --enable-libwebp --enable-libx264 --enable-libx265 --enable-libxml2 --enable-libzimg --enable-lzma --enable-zlib --enable-gmp --enable-libvidstab --enable-libvorbis --enable-libvo-amrwbenc --enable-libmysofa --enable-libspeex --enable-libxvid --enable-libaom --enable-libmfx --enable-amf --enable-ffnvcodec --enable-cuvid --enable-d3d11va --enable-nvenc --enable-nvdec --enable-dxva2 --enable-avisynth --enable-libopenmpt\r\n  libavutil      56. 26.100 / 56. 26.100\r\n  libavcodec     58. 44.100 / 58. 44.100\r\n  libavformat    58. 26.100 / 58. 26.100\r\n  libavdevice    58.  6.101 / 58.  6.101\r\n  libavfilter     7. 48.100 /  7. 48.100\r\n  libswscale      5.  4.100 /  5.  4.100\r\n  libswresample   3.  4.100 /  3.  4.100\r\n  libpostproc    55.  4.100 / 55.  4.100\r\nInput #0, mov,mp4,m4a,3gp,3g2,mj2, from 'D:\\do\\alltest\\video2019-01-20\\4330241708900034\\4330241708900034.mp4':\r\n  Metadata:\r\n    major_brand     : isom\r\n    minor_version   : 512\r\n    compatible_brands: isomiso2avc1mp41\r\n    encoder         : Lavf58.20.100\r\n  Duration: 00:05:13.93, start: 0.000000, bitrate: 330 kb/s\r\n    Stream #0:0(und): Video: h264 (High) (avc1 / 0x31637661), yuv420p, 640x360 [SAR 1:1 DAR 16:9], 273 kb/s, 30 fps, 30 tbr, 15360 tbn, 60 tbc (default)\r\n    Metadata:\r\n      handler_name    : VideoHandler\r\n    Stream #0:1(und): Audio: aac (LC) (mp4a / 0x6134706D), 44100 Hz, stereo, fltp, 48 kb/s (default)\r\n    Metadata:\r\n      handler_name    : SoundHandler\r\nOutput #0, mp4, to 'D:\\do\\alltest\\video2019-01-20\\4330241708900034/4330241708900034_.mp4':\r\n  Metadata:\r\n    major_brand     : isom\r\n    minor_version   : 512\r\n    compatible_brands: isomiso2avc1mp41\r\n    encoder         : Lavf58.26.100\r\n    Stream #0:0(und): Video: h264 (High) (avc1 / 0x31637661), yuv420p, 640x360 [SAR 1:1 DAR 16:9], q=2-31, 273 kb/s, 30 fps, 30 tbr, 15360 tbn, 15360 tbc (default)\r\n    Metadata:\r\n      handler_name    : VideoHandler\r\n    Stream #0:1(und): Audio: aac (LC) (mp4a / 0x6134706D), 44100 Hz, stereo, fltp, 48 kb/s (default)\r\n    Metadata:\r\n      handler_name    : SoundHandler\r\nStream mapping:\r\n  Stream #0:0 -> #0:0 (copy)\r\n  Stream #0:1 -> #0:1 (copy)\r\nPress [q] to stop, [?] for help\r\nframe= 9225 fps=0.0 q=-1.0 Lsize=   12549kB time=00:05:07.40 bitrate= 334.4kbits/s speed= 894x    \r\nvideo:10428kB audio:1802kB subtitle:0kB other streams:0kB global headers:0kB muxing overhead: 2.607183%\r\n""ffmpeg version N-92989-g32421602df Copyright (c) 2000-2019 the FFmpeg developers\r\n  built with gcc 8.2.1 (GCC) 20181201\r\n  configuration: --enable-gpl --enable-version3 --enable-sdl2 --enable-fontconfig --enable-gnutls --enable-iconv --enable-libass --enable-libbluray --enable-libfreetype --enable-libmp3lame --enable-libopencore-amrnb --enable-libopencore-amrwb --enable-libopenjpeg --enable-libopus --enable-libshine --enable-libsnappy --enable-libsoxr --enable-libtheora --enable-libtwolame --enable-libvpx --enable-libwavpack --enable-libwebp --enable-libx264 --enable-libx265 --enable-libxml2 --enable-libzimg --enable-lzma --enable-zlib --enable-gmp --enable-libvidstab --enable-libvorbis --enable-libvo-amrwbenc --enable-libmysofa --enable-libspeex --enable-libxvid --enable-libaom --enable-libmfx --enable-amf --enable-ffnvcodec --enable-cuvid --enable-d3d11va --enable-nvenc --enable-nvdec --enable-dxva2 --enable-avisynth --enable-libopenmpt\r\n  libavutil      56. 26.100 / 56. 26.100\r\n  libavcodec     58. 44.100 / 58. 44.100\r\n  libavformat    58. 26.100 / 58. 26.100\r\n  libavdevice    58.  6.101 / 58.  6.101\r\n  libavfilter     7. 48.100 /  7. 48.100\r\n  libswscale      5.  4.100 /  5.  4.100\r\n  libswresample   3.  4.100 /  3.  4.100\r\n  libpostproc    55.  4.100 / 55.  4.100\r\nInput #0, mov,mp4,m4a,3gp,3g2,mj2, from 'D:\\do\\alltest\\video2019-01-20\\4330252366373746\\4330252366373746.mp4':\r\n  Metadata:\r\n    major_brand     : isom\r\n    minor_version   : 512\r\n    compatible_brands: isomiso2avc1mp41\r\n    encoder         : Lavf58.20.100\r\n    comment         : vid:v0204c410000bh1e5t72gddv2vic1o4g\r\n  Duration: 00:01:04.12, start: 0.000000, bitrate: 365 kb/s\r\n    Stream #0:0(und): Video: h264 (High) (avc1 / 0x31637661), yuv420p, 854x480, 310 kb/s, 25 fps, 25 tbr, 12800 tbn, 50 tbc (default)\r\n    Metadata:\r\n      handler_name    : VideoHandler\r\n    Stream #0:1(und): Audio: aac (LC) (mp4a / 0x6134706D), 44100 Hz, stereo, fltp, 48 kb/s (default)\r\n    Metadata:\r\n      handler_name    : SoundHandler\r\nOutput #0, mp4, to 'D:\\do\\alltest\\video2019-01-20\\4330252366373746/4330252366373746_.mp4':\r\n  Metadata:\r\n    major_brand     : isom\r\n    minor_version   : 512\r\n    compatible_brands: isomiso2avc1mp41\r\n    comment         : vid:v0204c410000bh1e5t72gddv2vic1o4g\r\n    encoder         : Lavf58.26.100\r\n    Stream #0:0(und): Video: h264 (High) (avc1 / 0x31637661), yuv420p, 854x480, q=2-31, 310 kb/s, 25 fps, 25 tbr, 12800 tbn, 12800 tbc (default)\r\n    Metadata:\r\n      handler_name    : VideoHandler\r\n    Stream #0:1(und): Audio: aac (LC) (mp4a / 0x6134706D), 44100 Hz, stereo, fltp, 48 kb/s (default)\r\n    Metadata:\r\n      handler_name    : SoundHandler\r\nStream mapping:\r\n  Stream #0:0 -> #0:0 (copy)\r\n  Stream #0:1 -> #0:1 (copy)\r\nPress [q] to stop, [?] for help\r\nframe= 1443 fps=0.0 q=-1.0 Lsize=    2710kB time=00:00:57.60 bitrate= 385.4kbits/s speed= 960x    \r\nvideo:2324kB audio:339kB subtitle:0kB other streams:0kB global headers:0kB muxing overhead: 1.793192%\r\n""ffmpeg version N-92989-g32421602df Copyright (c) 2000-2019 the FFmpeg developers\r\n  built with gcc 8.2.1 (GCC) 20181201\r\n  configuration: --enable-gpl --enable-version3 --enable-sdl2 --enable-fontconfig --enable-gnutls --enable-iconv --enable-libass --enable-libbluray --enable-libfreetype --enable-libmp3lame --enable-libopencore-amrnb --enable-libopencore-amrwb --enable-libopenjpeg --enable-libopus --enable-libshine --enable-libsnappy --enable-libsoxr --enable-libtheora --enable-libtwolame --enable-libvpx --enable-libwavpack --enable-libwebp --enable-libx264 --enable-libx265 --enable-libxml2 --enable-libzimg --enable-lzma --enable-zlib --enable-gmp --enable-libvidstab --enable-libvorbis --enable-libvo-amrwbenc --enable-libmysofa --enable-libspeex --enable-libxvid --enable-libaom --enable-libmfx --enable-amf --enable-ffnvcodec --enable-cuvid --enable-d3d11va --enable-nvenc --enable-nvdec --enable-dxva2 --enable-avisynth --enable-libopenmpt\r\n  libavutil      56. 26.100 / 56. 26.100\r\n  libavcodec     58. 44.100 / 58. 44.100\r\n  libavformat    58. 26.100 / 58. 26.100\r\n  libavdevice    58.  6.101 / 58.  6.101\r\n  libavfilter     7. 48.100 /  7. 48.100\r\n  libswscale      5.  4.100 /  5.  4.100\r\n  libswresample   3.  4.100 /  3.  4.100\r\n  libpostproc    55.  4.100 / 55.  4.100\r\nInput #0, mov,mp4,m4a,3gp,3g2,mj2, from 'D:\\do\\alltest\\video2019-01-20\\4330258658425619\\4330258658425619.mp4':\r\n  Metadata:\r\n    major_brand     : isom\r\n    minor_version   : 512\r\n    compatible_brands: isomiso2avc1mp41\r\n    encoder         : Lavf58.20.100\r\n  Duration: 00:05:39.01, start: 0.000000, bitrate: 245 kb/s\r\n    Stream #0:0(und): Video: h264 (High) (avc1 / 0x31637661), yuv420p, 852x480 [SAR 1:1 DAR 71:40], 188 kb/s, 30 fps, 30 tbr, 15360 tbn, 60 tbc (default)\r\n    Metadata:\r\n      handler_name    : VideoHandler\r\n    Stream #0:1(und): Audio: aac (LC) (mp4a / 0x6134706D), 44100 Hz, stereo, fltp, 48 kb/s (default)\r\n    Metadata:\r\n      handler_name    : SoundHandler\r\nOutput #0, mp4, to 'D:\\do\\alltest\\video2019-01-20\\4330258658425619/4330258658425619_.mp4':\r\n  Metadata:\r\n    major_brand     : isom\r\n    minor_version   : 512\r\n    compatible_brands: isomiso2avc1mp41\r\n    encoder         : Lavf58.26.100\r\n    Stream #0:0(und): Video: h264 (High) (avc1 / 0x31637661), yuv420p, 852x480 [SAR 1:1 DAR 71:40], q=2-31, 188 kb/s, 30 fps, 30 tbr, 15360 tbn, 15360 tbc (default)\r\n    Metadata:\r\n      handler_name    : VideoHandler\r\n    Stream #0:1(und): Audio: aac (LC) (mp4a / 0x6134706D), 44100 Hz, stereo, fltp, 48 kb/s (default)\r\n    Metadata:\r\n      handler_name    : SoundHandler\r\nStream mapping:\r\n  Stream #0:0 -> #0:0 (copy)\r\n  Stream #0:1 -> #0:1 (copy)\r\nPress [q] to stop, [?] for help\r\nframe= 9978 fps=0.0 q=-1.0 Lsize=    9999kB time=00:05:32.50 bitrate= 246.3kbits/s speed= 950x    \r\nvideo:7697kB audio:1949kB subtitle:0kB other streams:0kB global headers:0kB muxing overhead: 3.663285%\r\n""ffmpeg version N-92989-g32421602df Copyright (c) 2000-2019 the FFmpeg developers\r\n  built with gcc 8.2.1 (GCC) 20181201\r\n  configuration: --enable-gpl --enable-version3 --enable-sdl2 --enable-fontconfig --enable-gnutls --enable-iconv --enable-libass --enable-libbluray --enable-libfreetype --enable-libmp3lame --enable-libopencore-amrnb --enable-libopencore-amrwb --enable-libopenjpeg --enable-libopus --enable-libshine --enable-libsnappy --enable-libsoxr --enable-libtheora --enable-libtwolame --enable-libvpx --enable-libwavpack --enable-libwebp --enable-libx264 --enable-libx265 --enable-libxml2 --enable-libzimg --enable-lzma --enable-zlib --enable-gmp --enable-libvidstab --enable-libvorbis --enable-libvo-amrwbenc --enable-libmysofa --enable-libspeex --enable-libxvid --enable-libaom --enable-libmfx --enable-amf --enable-ffnvcodec --enable-cuvid --enable-d3d11va --enable-nvenc --enable-nvdec --enable-dxva2 --enable-avisynth --enable-libopenmpt\r\n  libavutil      56. 26.100 / 56. 26.100\r\n  libavcodec     58. 44.100 / 58. 44.100\r\n  libavformat    58. 26.100 / 58. 26.100\r\n  libavdevice    58.  6.101 / 58.  6.101\r\n  libavfilter     7. 48.100 /  7. 48.100\r\n  libswscale      5.  4.100 /  5.  4.100\r\n  libswresample   3.  4.100 /  3.  4.100\r\n  libpostproc    55.  4.100 / 55.  4.100\r\nInput #0, mov,mp4,m4a,3gp,3g2,mj2, from 'D:\\do\\alltest\\video2019-01-20\\4330304635867227\\4330304635867227.mp4':\r\n  Metadata:\r\n    major_brand     : isom\r\n    minor_version   : 512\r\n    compatible_brands: isomiso2avc1mp41\r\n    encoder         : Lavf58.20.100\r\n  Duration: 00:00:52.60, start: 0.000000, bitrate: 247 kb/s\r\n    Stream #0:0(und): Video: h264 (High) (avc1 / 0x31637661), yuv420p, 640x360 [SAR 1:1 DAR 16:9], 192 kb/s, 25 fps, 25 tbr, 12800 tbn, 50 tbc (default)\r\n    Metadata:\r\n      handler_name    : VideoHandler\r\n    Stream #0:1(und): Audio: aac (LC) (mp4a / 0x6134706D), 44100 Hz, stereo, fltp, 48 kb/s (default)\r\n    Metadata:\r\n      handler_name    : SoundHandler\r\nOutput #0, mp4, to 'D:\\do\\alltest\\video2019-01-20\\4330304635867227/4330304635867227_.mp4':\r\n  Metadata:\r\n    major_brand     : isom\r\n    minor_version   : 512\r\n    compatible_brands: isomiso2avc1mp41\r\n    encoder         : Lavf58.26.100\r\n    Stream #0:0(und): Video: h264 (High) (avc1 / 0x31637661), yuv420p, 640x360 [SAR 1:1 DAR 16:9], q=2-31, 192 kb/s, 25 fps, 25 tbr, 12800 tbn, 12800 tbc (default)\r\n    Metadata:\r\n      handler_name    : VideoHandler\r\n    Stream #0:1(und): Audio: aac (LC) (mp4a / 0x6134706D), 44100 Hz, stereo, fltp, 48 kb/s (default)\r\n    Metadata:\r\n      handler_name    : SoundHandler\r\nStream mapping:\r\n  Stream #0:0 -> #0:0 (copy)\r\n  Stream #0:1 -> #0:1 (copy)\r\nPress [q] to stop, [?] for help\r\nframe= 1155 fps=0.0 q=-1.0 Lsize=    1490kB time=00:00:46.09 bitrate= 264.8kbits/s speed= 922x    \r\nvideo:1180kB audio:271kB subtitle:0kB other streams:0kB global headers:0kB muxing overhead: 2.638111%\r\n""ffmpeg version N-92989-g32421602df Copyright (c) 2000-2019 the FFmpeg developers\r\n  built with gcc 8.2.1 (GCC) 20181201\r\n  configuration: --enable-gpl --enable-version3 --enable-sdl2 --enable-fontconfig --enable-gnutls --enable-iconv --enable-libass --enable-libbluray --enable-libfreetype --enable-libmp3lame --enable-libopencore-amrnb --enable-libopencore-amrwb --enable-libopenjpeg --enable-libopus --enable-libshine --enable-libsnappy --enable-libsoxr --enable-libtheora --enable-libtwolame --enable-libvpx --enable-libwavpack --enable-libwebp --enable-libx264 --enable-libx265 --enable-libxml2 --enable-libzimg --enable-lzma --enable-zlib --enable-gmp --enable-libvidstab --enable-libvorbis --enable-libvo-amrwbenc --enable-libmysofa --enable-libspeex --enable-libxvid --enable-libaom --enable-libmfx --enable-amf --enable-ffnvcodec --enable-cuvid --enable-d3d11va --enable-nvenc --enable-nvdec --enable-dxva2 --enable-avisynth --enable-libopenmpt\r\n  libavutil      56. 26.100 / 56. 26.100\r\n  libavcodec     58. 44.100 / 58. 44.100\r\n  libavformat    58. 26.100 / 58. 26.100\r\n  libavdevice    58.  6.101 / 58.  6.101\r\n  libavfilter     7. 48.100 /  7. 48.100\r\n  libswscale      5.  4.100 /  5.  4.100\r\n  libswresample   3.  4.100 /  3.  4.100\r\n  libpostproc    55.  4.100 / 55.  4.100\r\nInput #0, mov,mp4,m4a,3gp,3g2,mj2, from 'D:\\do\\alltest\\video2019-01-20\\4330307865836837\\4330307865836837.mp4':\r\n  Metadata:\r\n    major_brand     : isom\r\n    minor_version   : 512\r\n    compatible_brands: isomiso2avc1mp41\r\n    encoder         : Lavf58.20.100\r\n  Duration: 00:02:05.08, start: 0.000000, bitrate: 341 kb/s\r\n    Stream #0:0(und): Video: h264 (High) (avc1 / 0x31637661), yuv420p, 640x360 [SAR 1:1 DAR 16:9], 286 kb/s, 25 fps, 25 tbr, 12800 tbn, 50 tbc (default)\r\n    Metadata:\r\n      handler_name    : VideoHandler\r\n    Stream #0:1(und): Audio: aac (LC) (mp4a / 0x6134706D), 44100 Hz, stereo, fltp, 48 kb/s (default)\r\n    Metadata:\r\n      handler_name    : SoundHandler\r\nOutput #0, mp4, to 'D:\\do\\alltest\\video2019-01-20\\4330307865836837/4330307865836837_.mp4':\r\n  Metadata:\r\n    major_brand     : isom\r\n    minor_version   : 512\r\n    compatible_brands: isomiso2avc1mp41\r\n    encoder         : Lavf58.26.100\r\n    Stream #0:0(und): Video: h264 (High) (avc1 / 0x31637661), yuv420p, 640x360 [SAR 1:1 DAR 16:9], q=2-31, 286 kb/s, 25 fps, 25 tbr, 12800 tbn, 12800 tbc (default)\r\n    Metadata:\r\n      handler_name    : VideoHandler\r\n    Stream #0:1(und): Audio: aac (LC) (mp4a / 0x6134706D), 44100 Hz, stereo, fltp, 48 kb/s (default)\r\n    Metadata:\r\n      handler_name    : SoundHandler\r\nStream mapping:\r\n  Stream #0:0 -> #0:0 (copy)\r\n  Stream #0:1 -> #0:1 (copy)\r\nPress [q] to stop, [?] for help\r\nframe= 2967 fps=0.0 q=-1.0 Lsize=    5106kB time=00:01:58.56 bitrate= 352.8kbits/s speed= 980x    \r\nvideo:4314kB audio:695kB subtitle:0kB other streams:0kB global headers:0kB muxing overhead: 1.928530%\r\n""ffmpeg version N-92989-g32421602df Copyright (c) 2000-2019 the FFmpeg developers\r\n  built with gcc 8.2.1 (GCC) 20181201\r\n  configuration: --enable-gpl --enable-version3 --enable-sdl2 --enable-fontconfig --enable-gnutls --enable-iconv --enable-libass --enable-libbluray --enable-libfreetype --enable-libmp3lame --enable-libopencore-amrnb --enable-libopencore-amrwb --enable-libopenjpeg --enable-libopus --enable-libshine --enable-libsnappy --enable-libsoxr --enable-libtheora --enable-libtwolame --enable-libvpx --enable-libwavpack --enable-libwebp --enable-libx264 --enable-libx265 --enable-libxml2 --enable-libzimg --enable-lzma --enable-zlib --enable-gmp --enable-libvidstab --enable-libvorbis --enable-libvo-amrwbenc --enable-libmysofa --enable-libspeex --enable-libxvid --enable-libaom --enable-libmfx --enable-amf --enable-ffnvcodec --enable-cuvid --enable-d3d11va --enable-nvenc --enable-nvdec --enable-dxva2 --enable-avisynth --enable-libopenmpt\r\n  libavutil      56. 26.100 / 56. 26.100\r\n  libavcodec     58. 44.100 / 58. 44.100\r\n  libavformat    58. 26.100 / 58. 26.100\r\n  libavdevice    58.  6.101 / 58.  6.101\r\n  libavfilter     7. 48.100 /  7. 48.100\r\n  libswscale      5.  4.100 /  5.  4.100\r\n  libswresample   3.  4.100 /  3.  4.100\r\n  libpostproc    55.  4.100 / 55.  4.100\r\nInput #0, mov,mp4,m4a,3gp,3g2,mj2, from 'D:\\do\\alltest\\video2019-01-20\\4330428816717223\\4330428816717223.mp4':\r\n  Metadata:\r\n    major_brand     : isom\r\n    minor_version   : 512\r\n    compatible_brands: isomiso2avc1mp41\r\n    encoder         : Lavf58.20.100\r\n  Duration: 00:10:04.71, start: 0.000000, bitrate: 250 kb/s\r\n    Stream #0:0(und): Video: h264 (High) (avc1 / 0x31637661), yuv420p, 640x360 [SAR 1:1 DAR 16:9], 196 kb/s, 24 fps, 24 tbr, 12288 tbn, 48 tbc (default)\r\n    Metadata:\r\n      handler_name    : VideoHandler\r\n    Stream #0:1(und): Audio: aac (LC) (mp4a / 0x6134706D), 44100 Hz, stereo, fltp, 48 kb/s (default)\r\n    Metadata:\r\n      handler_name    : SoundHandler\r\nOutput #0, mp4, to 'D:\\do\\alltest\\video2019-01-20\\4330428816717223/4330428816717223_.mp4':\r\n  Metadata:\r\n    major_brand     : isom\r\n    minor_version   : 512\r\n    compatible_brands: isomiso2avc1mp41\r\n    encoder         : Lavf58.26.100\r\n    Stream #0:0(und): Video: h264 (High) (avc1 / 0x31637661), yuv420p, 640x360 [SAR 1:1 DAR 16:9], q=2-31, 196 kb/s, 24 fps, 24 tbr, 12288 tbn, 12288 tbc (default)\r\n    Metadata:\r\n      handler_name    : VideoHandler\r\n    Stream #0:1(und): Audio: aac (LC) (mp4a / 0x6134706D), 44100 Hz, stereo, fltp, 48 kb/s (default)\r\n    Metadata:\r\n      handler_name    : SoundHandler\r\nStream mapping:\r\n  Stream #0:0 -> #0:0 (copy)\r\n  Stream #0:1 -> #0:1 (copy)\r\nPress [q] to stop, [?] for help\r\nframe=12408 fps=0.0 q=-1.0 size=   15360kB time=00:08:36.87 bitrate= 243.4kbits/s speed=1.03e+03x    \rframe=14360 fps=0.0 q=-1.0 Lsize=   18350kB time=00:09:58.20 bitrate= 251.3kbits/s speed=1.03e+03x    \r\nvideo:14404kB audio:3506kB subtitle:0kB other streams:0kB global headers:0kB muxing overhead: 2.457330%\r\n""ffmpeg version N-92989-g32421602df Copyright (c) 2000-2019 the FFmpeg developers\r\n  built with gcc 8.2.1 (GCC) 20181201\r\n  configuration: --enable-gpl --enable-version3 --enable-sdl2 --enable-fontconfig --enable-gnutls --enable-iconv --enable-libass --enable-libbluray --enable-libfreetype --enable-libmp3lame --enable-libopencore-amrnb --enable-libopencore-amrwb --enable-libopenjpeg --enable-libopus --enable-libshine --enable-libsnappy --enable-libsoxr --enable-libtheora --enable-libtwolame --enable-libvpx --enable-libwavpack --enable-libwebp --enable-libx264 --enable-libx265 --enable-libxml2 --enable-libzimg --enable-lzma --enable-zlib --enable-gmp --enable-libvidstab --enable-libvorbis --enable-libvo-amrwbenc --enable-libmysofa --enable-libspeex --enable-libxvid --enable-libaom --enable-libmfx --enable-amf --enable-ffnvcodec --enable-cuvid --enable-d3d11va --enable-nvenc --enable-nvdec --enable-dxva2 --enable-avisynth --enable-libopenmpt\r\n  libavutil      56. 26.100 / 56. 26.100\r\n  libavcodec     58. 44.100 / 58. 44.100\r\n  libavformat    58. 26.100 / 58. 26.100\r\n  libavdevice    58.  6.101 / 58.  6.101\r\n  libavfilter     7. 48.100 /  7. 48.100\r\n  libswscale      5.  4.100 /  5.  4.100\r\n  libswresample   3.  4.100 /  3.  4.100\r\n  libpostproc    55.  4.100 / 55.  4.100\r\nInput #0, mov,mp4,m4a,3gp,3g2,mj2, from 'D:\\do\\alltest\\video2019-01-20\\4330430780110488\\4330430780110488.mp4':\r\n  Metadata:\r\n    major_brand     : isom\r\n    minor_version   : 512\r\n    compatible_brands: isomiso2avc1mp41\r\n    encoder         : Lavf58.20.100\r\n  Duration: 00:05:57.16, start: 0.000000, bitrate: 135 kb/s\r\n    Stream #0:0(und): Video: h264 (High) (avc1 / 0x31637661), yuv420p, 640x360 [SAR 1:1 DAR 16:9], 80 kb/s, 25 fps, 25 tbr, 12800 tbn, 50 tbc (default)\r\n    Metadata:\r\n      handler_name    : VideoHandler\r\n    Stream #0:1(und): Audio: aac (LC) (mp4a / 0x6134706D), 44100 Hz, stereo, fltp, 48 kb/s (default)\r\n    Metadata:\r\n      handler_name    : SoundHandler\r\nOutput #0, mp4, to 'D:\\do\\alltest\\video2019-01-20\\4330430780110488/4330430780110488_.mp4':\r\n  Metadata:\r\n    major_brand     : isom\r\n    minor_version   : 512\r\n    compatible_brands: isomiso2avc1mp41\r\n    encoder         : Lavf58.26.100\r\n    Stream #0:0(und): Video: h264 (High) (avc1 / 0x31637661), yuv420p, 640x360 [SAR 1:1 DAR 16:9], q=2-31, 80 kb/s, 25 fps, 25 tbr, 12800 tbn, 12800 tbc (default)\r\n    Metadata:\r\n      handler_name    : VideoHandler\r\n    Stream #0:1(und): Audio: aac (LC) (mp4a / 0x6134706D), 44100 Hz, stereo, fltp, 48 kb/s (default)\r\n    Metadata:\r\n      handler_name    : SoundHandler\r\nStream mapping:\r\n  Stream #0:0 -> #0:0 (copy)\r\n  Stream #0:1 -> #0:1 (copy)\r\nPress [q] to stop, [?] for help\r\nframe= 8769 fps=0.0 q=-1.0 Lsize=    5786kB time=00:05:50.64 bitrate= 135.2kbits/s speed=1.03e+03x    \r\nvideo:3448kB audio:2056kB subtitle:0kB other streams:0kB global headers:0kB muxing overhead: 5.131193%\r\n""ffmpeg version N-92989-g32421602df Copyright (c) 2000-2019 the FFmpeg developers\r\n  built with gcc 8.2.1 (GCC) 20181201\r\n  configuration: --enable-gpl --enable-version3 --enable-sdl2 --enable-fontconfig --enable-gnutls --enable-iconv --enable-libass --enable-libbluray --enable-libfreetype --enable-libmp3lame --enable-libopencore-amrnb --enable-libopencore-amrwb --enable-libopenjpeg --enable-libopus --enable-libshine --enable-libsnappy --enable-libsoxr --enable-libtheora --enable-libtwolame --enable-libvpx --enable-libwavpack --enable-libwebp --enable-libx264 --enable-libx265 --enable-libxml2 --enable-libzimg --enable-lzma --enable-zlib --enable-gmp --enable-libvidstab --enable-libvorbis --enable-libvo-amrwbenc --enable-libmysofa --enable-libspeex --enable-libxvid --enable-libaom --enable-libmfx --enable-amf --enable-ffnvcodec --enable-cuvid --enable-d3d11va --enable-nvenc --enable-nvdec --enable-dxva2 --enable-avisynth --enable-libopenmpt\r\n  libavutil      56. 26.100 / 56. 26.100\r\n  libavcodec     58. 44.100 / 58. 44.100\r\n  libavformat    58. 26.100 / 58. 26.100\r\n  libavdevice    58.  6.101 / 58.  6.101\r\n  libavfilter     7. 48.100 /  7. 48.100\r\n  libswscale      5.  4.100 /  5.  4.100\r\n  libswresample   3.  4.100 /  3.  4.100\r\n  libpostproc    55.  4.100 / 55.  4.100\r\nInput #0, mov,mp4,m4a,3gp,3g2,mj2, from 'D:\\do\\alltest\\video2019-01-20\\4330439071507857\\4330439071507857.mp4':\r\n  Metadata:\r\n    major_brand     : isom\r\n    minor_version   : 512\r\n    compatible_brands: isomiso2avc1mp41\r\n    encoder         : Lavf58.20.100\r\n  Duration: 00:04:12.22, start: 0.000000, bitrate: 427 kb/s\r\n    Stream #0:0(und): Video: h264 (High) (avc1 / 0x31637661), yuv420p, 640x360 [SAR 1:1 DAR 16:9], 370 kb/s, 29.97 fps, 29.97 tbr, 30k tbn, 59.94 tbc (default)\r\n    Metadata:\r\n      handler_name    : VideoHandler\r\n    Stream #0:1(und): Audio: aac (LC) (mp4a / 0x6134706D), 44100 Hz, stereo, fltp, 48 kb/s (default)\r\n    Metadata:\r\n      handler_name    : SoundHandler\r\nOutput #0, mp4, to 'D:\\do\\alltest\\video2019-01-20\\4330439071507857/4330439071507857_.mp4':\r\n  Metadata:\r\n    major_brand     : isom\r\n    minor_version   : 512\r\n    compatible_brands: isomiso2avc1mp41\r\n    encoder         : Lavf58.26.100\r\n    Stream #0:0(und): Video: h264 (High) (avc1 / 0x31637661), yuv420p, 640x360 [SAR 1:1 DAR 16:9], q=2-31, 370 kb/s, 29.97 fps, 29.97 tbr, 30k tbn, 30k tbc (default)\r\n    Metadata:\r\n      handler_name    : VideoHandler\r\n    Stream #0:1(und): Audio: aac (LC) (mp4a / 0x6134706D), 44100 Hz, stereo, fltp, 48 kb/s (default)\r\n    Metadata:\r\n      handler_name    : SoundHandler\r\nStream mapping:\r\n  Stream #0:0 -> #0:0 (copy)\r\n  Stream #0:1 -> #0:1 (copy)\r\nPress [q] to stop, [?] for help\r\nframe= 7367 fps=0.0 q=-1.0 Lsize=   13067kB time=00:04:05.71 bitrate= 435.6kbits/s speed= 856x    \r\nvideo:11371kB audio:1441kB subtitle:0kB other streams:0kB global headers:0kB muxing overhead: 1.988281%\r\n""ffmpeg version N-92989-g32421602df Copyright (c) 2000-2019 the FFmpeg developers\r\n  built with gcc 8.2.1 (GCC) 20181201\r\n  configuration: --enable-gpl --enable-version3 --enable-sdl2 --enable-fontconfig --enable-gnutls --enable-iconv --enable-libass --enable-libbluray --enable-libfreetype --enable-libmp3lame --enable-libopencore-amrnb --enable-libopencore-amrwb --enable-libopenjpeg --enable-libopus --enable-libshine --enable-libsnappy --enable-libsoxr --enable-libtheora --enable-libtwolame --enable-libvpx --enable-libwavpack --enable-libwebp --enable-libx264 --enable-libx265 --enable-libxml2 --enable-libzimg --enable-lzma --enable-zlib --enable-gmp --enable-libvidstab --enable-libvorbis --enable-libvo-amrwbenc --enable-libmysofa --enable-libspeex --enable-libxvid --enable-libaom --enable-libmfx --enable-amf --enable-ffnvcodec --enable-cuvid --enable-d3d11va --enable-nvenc --enable-nvdec --enable-dxva2 --enable-avisynth --enable-libopenmpt\r\n  libavutil      56. 26.100 / 56. 26.100\r\n  libavcodec     58. 44.100 / 58. 44.100\r\n  libavformat    58. 26.100 / 58. 26.100\r\n  libavdevice    58.  6.101 / 58.  6.101\r\n  libavfilter     7. 48.100 /  7. 48.100\r\n  libswscale      5.  4.100 /  5.  4.100\r\n  libswresample   3.  4.100 /  3.  4.100\r\n  libpostproc    55.  4.100 / 55.  4.100\r\nInput #0, mov,mp4,m4a,3gp,3g2,mj2, from 'D:\\do\\alltest\\video2019-01-20\\4330457128650154\\4330457128650154.mp4':\r\n  Metadata:\r\n    major_brand     : isom\r\n    minor_version   : 512\r\n    compatible_brands: isomiso2avc1mp41\r\n    encoder         : Lavf58.20.100\r\n  Duration: 00:10:10.85, start: 0.000000, bitrate: 357 kb/s\r\n    Stream #0:0(und): Video: h264 (High) (avc1 / 0x31637661), yuv420p, 640x360 [SAR 1:1 DAR 16:9], 301 kb/s, 29.97 fps, 29.97 tbr, 30k tbn, 59.94 tbc (default)\r\n    Metadata:\r\n      handler_name    : VideoHandler\r\n    Stream #0:1(und): Audio: aac (LC) (mp4a / 0x6134706D), 44100 Hz, stereo, fltp, 48 kb/s (default)\r\n    Metadata:\r\n      handler_name    : SoundHandler\r\nOutput #0, mp4, to 'D:\\do\\alltest\\video2019-01-20\\4330457128650154/4330457128650154_.mp4':\r\n  Metadata:\r\n    major_brand     : isom\r\n    minor_version   : 512\r\n    compatible_brands: isomiso2avc1mp41\r\n    encoder         : Lavf58.26.100\r\n    Stream #0:0(und): Video: h264 (High) (avc1 / 0x31637661), yuv420p, 640x360 [SAR 1:1 DAR 16:9], q=2-31, 301 kb/s, 29.97 fps, 29.97 tbr, 30k tbn, 30k tbc (default)\r\n    Metadata:\r\n      handler_name    : VideoHandler\r\n    Stream #0:1(und): Audio: aac (LC) (mp4a / 0x6134706D), 44100 Hz, stereo, fltp, 48 kb/s (default)\r\n    Metadata:\r\n      handler_name    : SoundHandler\r\nStream mapping:\r\n  Stream #0:0 -> #0:0 (copy)\r\n  Stream #0:1 -> #0:1 (copy)\r\nPress [q] to stop, [?] for help\r\nframe=13668 fps=0.0 q=-1.0 size=   19456kB time=00:07:35.97 bitrate= 349.5kbits/s speed= 905x    \rframe=18115 fps=0.0 q=-1.0 Lsize=   26572kB time=00:10:04.34 bitrate= 360.2kbits/s speed= 910x    \r\nvideo:22406kB audio:3542kB subtitle:0kB other streams:0kB global headers:0kB muxing overhead: 2.404752%\r\n""ffmpeg version N-92989-g32421602df Copyright (c) 2000-2019 the FFmpeg developers\r\n  built with gcc 8.2.1 (GCC) 20181201\r\n  configuration: --enable-gpl --enable-version3 --enable-sdl2 --enable-fontconfig --enable-gnutls --enable-iconv --enable-libass --enable-libbluray --enable-libfreetype --enable-libmp3lame --enable-libopencore-amrnb --enable-libopencore-amrwb --enable-libopenjpeg --enable-libopus --enable-libshine --enable-libsnappy --enable-libsoxr --enable-libtheora --enable-libtwolame --enable-libvpx --enable-libwavpack --enable-libwebp --enable-libx264 --enable-libx265 --enable-libxml2 --enable-libzimg --enable-lzma --enable-zlib --enable-gmp --enable-libvidstab --enable-libvorbis --enable-libvo-amrwbenc --enable-libmysofa --enable-libspeex --enable-libxvid --enable-libaom --enable-libmfx --enable-amf --enable-ffnvcodec --enable-cuvid --enable-d3d11va --enable-nvenc --enable-nvdec --enable-dxva2 --enable-avisynth --enable-libopenmpt\r\n  libavutil      56. 26.100 / 56. 26.100\r\n  libavcodec     58. 44.100 / 58. 44.100\r\n  libavformat    58. 26.100 / 58. 26.100\r\n  libavdevice    58.  6.101 / 58.  6.101\r\n  libavfilter     7. 48.100 /  7. 48.100\r\n  libswscale      5.  4.100 /  5.  4.100\r\n  libswresample   3.  4.100 /  3.  4.100\r\n  libpostproc    55.  4.100 / 55.  4.100\r\nInput #0, mov,mp4,m4a,3gp,3g2,mj2, from 'D:\\do\\alltest\\video2019-01-20\\4330463675898492\\4330463675898492.mp4':\r\n  Metadata:\r\n    major_brand     : isom\r\n    minor_version   : 512\r\n    compatible_brands: isomiso2avc1mp41\r\n    encoder         : Lavf58.20.100\r\n  Duration: 00:09:59.17, start: 0.000000, bitrate: 128 kb/s\r\n    Stream #0:0(und): Video: h264 (High) (avc1 / 0x31637661), yuv420p, 640x360 [SAR 1:1 DAR 16:9], 72 kb/s, 29.97 fps, 29.97 tbr, 30k tbn, 59.94 tbc (default)\r\n    Metadata:\r\n      handler_name    : VideoHandler\r\n    Stream #0:1(und): Audio: aac (LC) (mp4a / 0x6134706D), 44100 Hz, stereo, fltp, 48 kb/s (default)\r\n    Metadata:\r\n      handler_name    : SoundHandler\r\nOutput #0, mp4, to 'D:\\do\\alltest\\video2019-01-20\\4330463675898492/4330463675898492_.mp4':\r\n  Metadata:\r\n    major_brand     : isom\r\n    minor_version   : 512\r\n    compatible_brands: isomiso2avc1mp41\r\n    encoder         : Lavf58.26.100\r\n    Stream #0:0(und): Video: h264 (High) (avc1 / 0x31637661), yuv420p, 640x360 [SAR 1:1 DAR 16:9], q=2-31, 72 kb/s, 29.97 fps, 29.97 tbr, 30k tbn, 30k tbc (default)\r\n    Metadata:\r\n      handler_name    : VideoHandler\r\n    Stream #0:1(und): Audio: aac (LC) (mp4a / 0x6134706D), 44100 Hz, stereo, fltp, 48 kb/s (default)\r\n    Metadata:\r\n      handler_name    : SoundHandler\r\nStream mapping:\r\n  Stream #0:0 -> #0:0 (copy)\r\n  Stream #0:1 -> #0:1 (copy)\r\nPress [q] to stop, [?] for help\r\nframe=15431 fps=0.0 q=-1.0 size=    7168kB time=00:08:34.78 bitrate= 114.1kbits/s speed=1.03e+03x    \rframe=17765 fps=0.0 q=-1.0 Lsize=    9304kB time=00:09:52.66 bitrate= 128.6kbits/s speed=1.02e+03x    \r\nvideo:5208kB audio:3474kB subtitle:0kB other streams:0kB global headers:0kB muxing overhead: 7.174108%\r\n""ffmpeg version N-92989-g32421602df Copyright (c) 2000-2019 the FFmpeg developers\r\n  built with gcc 8.2.1 (GCC) 20181201\r\n  configuration: --enable-gpl --enable-version3 --enable-sdl2 --enable-fontconfig --enable-gnutls --enable-iconv --enable-libass --enable-libbluray --enable-libfreetype --enable-libmp3lame --enable-libopencore-amrnb --enable-libopencore-amrwb --enable-libopenjpeg --enable-libopus --enable-libshine --enable-libsnappy --enable-libsoxr --enable-libtheora --enable-libtwolame --enable-libvpx --enable-libwavpack --enable-libwebp --enable-libx264 --enable-libx265 --enable-libxml2 --enable-libzimg --enable-lzma --enable-zlib --enable-gmp --enable-libvidstab --enable-libvorbis --enable-libvo-amrwbenc --enable-libmysofa --enable-libspeex --enable-libxvid --enable-libaom --enable-libmfx --enable-amf --enable-ffnvcodec --enable-cuvid --enable-d3d11va --enable-nvenc --enable-nvdec --enable-dxva2 --enable-avisynth --enable-libopenmpt\r\n  libavutil      56. 26.100 / 56. 26.100\r\n  libavcodec     58. 44.100 / 58. 44.100\r\n  libavformat    58. 26.100 / 58. 26.100\r\n  libavdevice    58.  6.101 / 58.  6.101\r\n  libavfilter     7. 48.100 /  7. 48.100\r\n  libswscale      5.  4.100 /  5.  4.100\r\n  libswresample   3.  4.100 /  3.  4.100\r\n  libpostproc    55.  4.100 / 55.  4.100\r\nInput #0, mov,mp4,m4a,3gp,3g2,mj2, from 'D:\\do\\alltest\\video2019-01-20\\4330476317584482\\4330476317584482.mp4':\r\n  Metadata:\r\n    major_brand     : isom\r\n    minor_version   : 512\r\n    compatible_brands: isomiso2avc1mp41\r\n    encoder         : Lavf58.20.100\r\n  Duration: 00:15:15.88, start: 0.000000, bitrate: 100 kb/s\r\n    Stream #0:0(und): Video: h264 (High) (avc1 / 0x31637661), yuv420p, 640x360 [SAR 1:1 DAR 16:9], 43 kb/s, 29.97 fps, 29.97 tbr, 30k tbn, 59.94 tbc (default)\r\n    Metadata:\r\n      handler_name    : VideoHandler\r\n    Stream #0:1(und): Audio: aac (LC) (mp4a / 0x6134706D), 44100 Hz, stereo, fltp, 48 kb/s (default)\r\n    Metadata:\r\n      handler_name    : SoundHandler\r\nOutput #0, mp4, to 'D:\\do\\alltest\\video2019-01-20\\4330476317584482/4330476317584482_.mp4':\r\n  Metadata:\r\n    major_brand     : isom\r\n    minor_version   : 512\r\n    compatible_brands: isomiso2avc1mp41\r\n    encoder         : Lavf58.26.100\r\n    Stream #0:0(und): Video: h264 (High) (avc1 / 0x31637661), yuv420p, 640x360 [SAR 1:1 DAR 16:9], q=2-31, 43 kb/s, 29.97 fps, 29.97 tbr, 30k tbn, 30k tbc (default)\r\n    Metadata:\r\n      handler_name    : VideoHandler\r\n    Stream #0:1(und): Audio: aac (LC) (mp4a / 0x6134706D), 44100 Hz, stereo, fltp, 48 kb/s (default)\r\n    Metadata:\r\n      handler_name    : SoundHandler\r\nStream mapping:\r\n  Stream #0:0 -> #0:0 (copy)\r\n  Stream #0:1 -> #0:1 (copy)\r\nPress [q] to stop, [?] for help\r\nframe=16093 fps=0.0 q=-1.0 size=    5376kB time=00:08:56.89 bitrate=  82.0kbits/s speed=1.07e+03x    \rframe=27257 fps=0.0 q=-1.0 Lsize=   11120kB time=00:15:09.37 bitrate= 100.2kbits/s speed=1.07e+03x    \r\nvideo:4832kB audio:5329kB subtitle:0kB other streams:0kB global headers:0kB muxing overhead: 9.430856%\r\n""ffmpeg version N-92989-g32421602df Copyright (c) 2000-2019 the FFmpeg developers\r\n  built with gcc 8.2.1 (GCC) 20181201\r\n  configuration: --enable-gpl --enable-version3 --enable-sdl2 --enable-fontconfig --enable-gnutls --enable-iconv --enable-libass --enable-libbluray --enable-libfreetype --enable-libmp3lame --enable-libopencore-amrnb --enable-libopencore-amrwb --enable-libopenjpeg --enable-libopus --enable-libshine --enable-libsnappy --enable-libsoxr --enable-libtheora --enable-libtwolame --enable-libvpx --enable-libwavpack --enable-libwebp --enable-libx264 --enable-libx265 --enable-libxml2 --enable-libzimg --enable-lzma --enable-zlib --enable-gmp --enable-libvidstab --enable-libvorbis --enable-libvo-amrwbenc --enable-libmysofa --enable-libspeex --enable-libxvid --enable-libaom --enable-libmfx --enable-amf --enable-ffnvcodec --enable-cuvid --enable-d3d11va --enable-nvenc --enable-nvdec --enable-dxva2 --enable-avisynth --enable-libopenmpt\r\n  libavutil      56. 26.100 / 56. 26.100\r\n  libavcodec     58. 44.100 / 58. 44.100\r\n  libavformat    58. 26.100 / 58. 26.100\r\n  libavdevice    58.  6.101 / 58.  6.101\r\n  libavfilter     7. 48.100 /  7. 48.100\r\n  libswscale      5.  4.100 /  5.  4.100\r\n  libswresample   3.  4.100 /  3.  4.100\r\n  libpostproc    55.  4.100 / 55.  4.100\r\nInput #0, mov,mp4,m4a,3gp,3g2,mj2, from 'D:\\do\\alltest\\video2019-01-20\\4330516217540511\\4330516217540511.mp4':\r\n  Metadata:\r\n    major_brand     : isom\r\n    minor_version   : 512\r\n    compatible_brands: isomiso2avc1mp41\r\n    encoder         : Lavf58.20.100\r\n  Duration: 00:10:07.61, start: 0.000000, bitrate: 285 kb/s\r\n    Stream #0:0(und): Video: h264 (High) (avc1 / 0x31637661), yuv420p, 640x360 [SAR 1:1 DAR 16:9], 228 kb/s, 29.97 fps, 29.97 tbr, 30k tbn, 59.94 tbc (default)\r\n    Metadata:\r\n      handler_name    : VideoHandler\r\n    Stream #0:1(und): Audio: aac (LC) (mp4a / 0x6134706D), 44100 Hz, stereo, fltp, 48 kb/s (default)\r\n    Metadata:\r\n      handler_name    : SoundHandler\r\nOutput #0, mp4, to 'D:\\do\\alltest\\video2019-01-20\\4330516217540511/4330516217540511_.mp4':\r\n  Metadata:\r\n    major_brand     : isom\r\n    minor_version   : 512\r\n    compatible_brands: isomiso2avc1mp41\r\n    encoder         : Lavf58.26.100\r\n    Stream #0:0(und): Video: h264 (High) (avc1 / 0x31637661), yuv420p, 640x360 [SAR 1:1 DAR 16:9], q=2-31, 228 kb/s, 29.97 fps, 29.97 tbr, 30k tbn, 30k tbc (default)\r\n    Metadata:\r\n      handler_name    : VideoHandler\r\n    Stream #0:1(und): Audio: aac (LC) (mp4a / 0x6134706D), 44100 Hz, stereo, fltp, 48 kb/s (default)\r\n    Metadata:\r\n      handler_name    : SoundHandler\r\nStream mapping:\r\n  Stream #0:0 -> #0:0 (copy)\r\n  Stream #0:1 -> #0:1 (copy)\r\nPress [q] to stop, [?] for help\r\nframe=13713 fps=0.0 q=-1.0 size=   15616kB time=00:07:37.47 bitrate= 279.6kbits/s speed= 915x    \rframe=18018 fps=0.0 q=-1.0 Lsize=   21035kB time=00:10:01.10 bitrate= 286.7kbits/s speed= 925x    \r\nvideo:16898kB audio:3523kB subtitle:0kB other streams:0kB global headers:0kB muxing overhead: 3.005879%\r\n"